<svg xmlns="http://www.w3.org/2000/svg" xmlns:xlink="http://www.w3.org/1999/xlink" width="50" zoomAndPan="magnify" viewBox="0 0 37.5 37.499999" height="50" preserveAspectRatio="xMidYMid meet" version="1.2"><defs><clipPath id="881ea00874"><path d="M 6 3.699219 L 31 3.699219 L 31 33.304688 L 6 33.304688 Z M 6 3.699219 "/></clipPath></defs><g id="ffd7af1b3e"><g clip-rule="nonzero" clip-path="url(#881ea00874)"><path style=" stroke:none;fill-rule:nonzero;fill:#686868;fill-opacity:1;" d="M 24.671875 3.699219 L 12.335938 3.699219 C 8.933594 3.699219 6.167969 6.46875 6.167969 9.867188 L 6.167969 28.371094 C 6.167969 31.09375 8.378906 33.304688 11.101562 33.304688 L 24.671875 33.304688 C 28.070312 33.304688 30.839844 30.539062 30.839844 27.136719 L 30.839844 9.867188 C 30.839844 6.46875 28.070312 3.699219 24.671875 3.699219 Z M 28.371094 9.867188 L 28.371094 23.4375 L 13.570312 23.4375 L 13.570312 6.167969 L 18.503906 6.167969 L 18.503906 16.464844 C 18.503906 17.234375 19.480469 17.5625 19.945312 16.953125 L 21.585938 14.800781 L 23.230469 16.953125 C 23.695312 17.5625 24.671875 17.234375 24.671875 16.464844 L 24.671875 6.167969 C 26.710938 6.167969 28.371094 7.828125 28.371094 9.867188 Z M 11.101562 6.394531 L 11.101562 23.4375 C 10.199219 23.4375 9.363281 23.699219 8.636719 24.125 L 8.636719 9.867188 C 8.636719 8.261719 9.667969 6.90625 11.101562 6.394531 Z M 24.671875 30.839844 L 11.101562 30.839844 C 7.859375 30.78125 7.863281 25.960938 11.101562 25.90625 L 28.371094 25.90625 L 28.371094 27.136719 C 28.371094 29.179688 26.710938 30.839844 24.671875 30.839844 Z M 24.671875 30.839844 "/></g></g></svg>