<svg width="37" height="36" viewBox="0 0 37 36" fill="none" xmlns="http://www.w3.org/2000/svg">
<g clip-path="url(#clip0_10_1283)">
<path d="M26.3229 8.65475V32.9126H4.77075V4.55553C4.77075 3.74482 5.42817 3.0874 6.23888 3.0874H20.7563C21.0636 3.0874 21.3638 3.1542 21.638 3.27936C21.8679 3.38342 22.0789 3.52826 22.261 3.71107L25.7 7.14936C25.8814 7.33217 26.0262 7.54311 26.131 7.77303C26.2568 8.04725 26.3229 8.34748 26.3229 8.65475Z" fill="#EAF6FF"/>
<path d="M26.323 8.65475V32.9126H24.6995V8.65475C24.6995 8.34748 24.6334 8.04725 24.5075 7.77303C24.4034 7.54311 24.2579 7.33217 24.0765 7.14936L20.6375 3.71107C20.4561 3.52826 20.2445 3.38342 20.0145 3.27936C19.7403 3.1542 19.4401 3.0874 19.1328 3.0874H20.7563C21.0636 3.0874 21.3638 3.1542 21.638 3.27936C21.868 3.38342 22.0789 3.52826 22.261 3.71107L25.7 7.14936C25.8814 7.33217 26.0262 7.54311 26.131 7.77303C26.2569 8.04725 26.323 8.34748 26.323 8.65475Z" fill="#C8EFFE"/>
<path d="M26.323 15.5109V31.1576L25.9117 31.9183C25.5615 32.5666 24.9055 32.9126 24.2418 32.9126C23.7636 32.9126 23.2806 32.7333 22.9051 32.3571L14.3509 23.8029C13.4537 22.9064 13.6738 21.3989 14.7896 20.7963L22.7279 16.5044C23.1294 16.188 23.8473 15.7296 24.3522 15.4244C24.9709 15.0398 25.7535 15.0834 26.323 15.5109Z" fill="#C8EFFE"/>
<path d="M26.131 7.77303H23.0373C22.2645 7.77303 21.6373 7.14584 21.6373 6.37311V3.27936C21.868 3.38342 22.0789 3.52826 22.261 3.71108L25.6993 7.14936C25.8813 7.33217 26.0262 7.54241 26.131 7.77303Z" fill="#99E6FC"/>
<path d="M26.131 7.77303H24.5075C24.4034 7.54311 24.2579 7.33217 24.0765 7.14936L21.6373 4.71092V3.27936C21.868 3.38342 22.0789 3.52826 22.261 3.71108L25.6993 7.14936C25.8813 7.33217 26.0262 7.54241 26.131 7.77303Z" fill="#62DBFB"/>
<path d="M31.9553 23.9798L24.4795 16.5039C24.881 16.1881 25.5988 15.7295 26.1032 15.4239C26.7933 14.9953 27.6878 15.0987 28.2622 15.6732L32.7861 20.197C33.3605 20.7715 33.4639 21.6659 33.0353 22.356C32.7104 22.8854 32.3772 23.4259 31.9553 23.9798Z" fill="#6ED5A1"/>
<path d="M33.035 22.3558C32.7102 22.8853 32.3769 23.426 31.955 23.9801L30.9186 22.9436C31.0437 22.7461 31.164 22.5506 31.2835 22.3558C31.7124 21.6661 31.6091 20.7717 31.0346 20.1972L26.5107 15.6733C26.401 15.5636 26.2787 15.4708 26.1493 15.3956C26.8327 15.0004 27.7004 15.1115 28.2622 15.6733L32.7861 20.1972C33.3605 20.7717 33.464 21.6661 33.035 22.3558Z" fill="#46CC8D"/>
<path d="M35.9727 10.6798V14.2932L31.4276 18.8389L29.6206 17.0318L35.9727 10.6798Z" fill="#6ED5A1"/>
<path d="M35.9727 12.5416V14.2931L31.4277 18.8388L30.5516 17.9627L35.9727 12.5416Z" fill="#46CC8D"/>
<path d="M31.9553 23.9798L24.4795 16.5039L16.5409 20.7959C15.4254 21.399 15.2055 22.9062 16.1022 23.8029L24.6563 32.3571C25.553 33.2538 27.0603 33.0338 27.6634 31.9183L31.9553 23.9798Z" fill="#FFC344"/>
<path d="M31.9549 23.9801L27.6631 31.9184C27.1442 32.8795 25.9538 33.1755 25.0608 32.6658C25.3575 32.4984 25.6134 32.2474 25.7913 31.9184L30.9185 22.9437L31.9549 23.9801Z" fill="#FEB137"/>
<path d="M18.7875 24.5095C18.7861 24.5095 18.7847 24.5095 18.7833 24.5102V24.5081C18.7847 24.5081 18.7861 24.5088 18.7875 24.5095Z" fill="#7CA1B1"/>
<path d="M26.323 28.7506H23.7678C23.7846 28.6028 23.7942 28.4528 23.7942 28.3005C23.7942 26.1251 22.0307 24.3615 19.8552 24.3615C19.4834 24.3615 19.1241 24.4142 18.7831 24.5104C18.5891 23.1001 17.3799 22.0136 15.9162 22.0136C15.6379 22.0136 15.3692 22.0537 15.1145 22.127C14.0817 20.6752 12.3867 19.7271 10.4692 19.7271C7.32188 19.7271 4.77052 22.2785 4.77052 25.4258C2.70319 25.4258 1.02722 27.1017 1.02722 29.1691C1.02722 31.2365 2.70312 32.9124 4.77052 32.9124H7.16459H17.8981H26.323C27.4722 32.9124 28.4039 31.9808 28.4039 30.8315C28.4039 29.6822 27.4722 28.7506 26.323 28.7506Z" fill="#8EBAC5"/>
<path d="M18.7785 24.4786C18.4733 24.4019 18.1534 24.3619 17.8243 24.3619C17.4524 24.3619 17.0931 24.4139 16.7521 24.5102C16.558 23.1005 15.3493 22.0134 13.8854 22.0134C13.607 22.0134 13.3384 22.0535 13.0838 22.1273C12.2373 20.9376 10.9471 20.0862 9.45361 19.8176C9.78338 19.7578 10.123 19.7269 10.4696 19.7269C12.3871 19.7269 14.0816 20.6754 15.1145 22.1273C15.369 22.0535 15.6383 22.0134 15.916 22.0134C17.3687 22.0134 18.571 23.0843 18.7785 24.4786Z" fill="#7CA1B1"/>
<path d="M23.7945 28.3008C23.7945 28.4527 23.7846 28.6031 23.7678 28.7508H21.7371C21.754 28.6031 21.7632 28.4527 21.7632 28.3008C21.7632 26.4769 20.5243 24.9434 18.8417 24.4948C19.1651 24.4083 19.5047 24.3619 19.8556 24.3619C22.0304 24.3619 23.7945 26.1253 23.7945 28.3008Z" fill="#7CA1B1"/>
<path d="M28.4041 30.8313C28.4041 31.9809 27.4725 32.9126 26.3229 32.9126H24.2922C25.4411 32.9126 26.3728 31.9809 26.3728 30.8313C26.3728 30.2569 26.14 29.7365 25.7632 29.3604C25.387 28.9835 24.8667 28.7508 24.2922 28.7508H26.3229C26.898 28.7508 27.4183 28.9835 27.7945 29.3604C28.1714 29.7365 28.4041 30.2569 28.4041 30.8313Z" fill="#7CA1B1"/>
<path d="M35.5997 13.9204L31.4277 18.0929L30.3665 17.0317L36.3455 11.0528C36.5514 10.8467 36.5514 10.5129 36.3455 10.307C36.1395 10.1011 35.8056 10.1011 35.5997 10.307L29.6207 16.286L28.6351 15.3003C28.1493 14.8146 27.4949 14.5875 26.8504 14.6378V8.65462C26.8454 8.02328 26.6053 7.30989 26.0726 6.77664L22.6347 3.33871C22.2009 2.89251 21.4836 2.56169 20.756 2.56021H6.23884C5.13845 2.56021 4.24323 3.45543 4.24323 4.55582V7.93884C4.24323 8.23014 4.47934 8.46618 4.77057 8.46618C5.0618 8.46618 5.29791 8.23014 5.29791 7.93884V4.55582C5.29791 4.03698 5.72 3.6149 6.23884 3.6149H21.1101V6.37312C21.1101 7.43582 21.9747 8.30038 23.0374 8.30038H25.7957V14.9937C25.275 15.3102 24.5993 15.7451 24.1912 16.0603L16.2901 20.332C15.788 20.6035 15.4017 21.0417 15.193 21.564C13.6851 21.8673 12.4732 23.3294 12.4943 24.9084C12.4943 25.1402 12.5177 25.3721 12.5638 25.5975C12.6149 25.8472 12.8346 26.0193 13.0799 26.0193C13.115 26.0193 13.1505 26.0157 13.1861 26.0084C13.4715 25.9501 13.6555 25.6714 13.597 25.386C13.5651 25.2301 13.5489 25.0694 13.5489 24.9084C13.5489 23.8625 14.2475 22.9301 15.2492 22.6365C16.3553 22.2644 17.8246 22.9934 18.164 24.1662C17.5504 24.4173 16.998 24.8031 16.5473 25.2998C16.3515 25.5154 16.3677 25.849 16.5834 26.0447C16.6844 26.1363 16.8112 26.1815 16.9376 26.1815C17.0812 26.1815 17.2242 26.1232 17.3282 26.0085C17.9454 25.3299 18.8618 24.8934 19.8553 24.8889C21.7364 24.8889 23.2669 26.4194 23.2669 28.3006C23.2669 28.4256 23.2592 28.557 23.2439 28.6911C23.2269 28.8404 23.2744 28.9898 23.3744 29.1018C23.4745 29.214 23.6176 29.278 23.7678 29.278H26.3229C27.1796 29.278 27.8765 29.975 27.8765 30.8317C27.8765 31.6883 27.1796 32.3852 26.3229 32.3852H4.77057C2.99736 32.3851 1.55469 30.9424 1.55469 29.1691C1.55469 27.5662 2.73355 26.2337 4.2698 25.9924C4.38343 27.2297 4.86613 28.4147 5.65827 29.378C5.76254 29.5049 5.91357 29.5704 6.06587 29.5704C6.18371 29.5704 6.30233 29.531 6.40048 29.4504C6.62541 29.2654 6.65783 28.9331 6.47284 28.7081C5.71515 27.7867 5.29784 26.621 5.29784 25.4258C5.29784 22.5742 7.61773 20.2544 10.4692 20.2544C11.3081 20.2544 12.1408 20.4599 12.8773 20.8488C13.1349 20.9849 13.4539 20.8863 13.5899 20.6288C13.7259 20.3713 13.6274 20.0522 13.3699 19.9162C12.4822 19.4474 11.4791 19.1997 10.4693 19.1997C8.31685 19.1997 6.41652 20.2979 5.29791 21.9631V10.5323C5.29791 10.241 5.0618 10.005 4.77057 10.005C4.47934 10.005 4.24323 10.241 4.24323 10.5323V24.9314C2.13638 25.192 0.5 26.9929 0.5 29.1691C0.5 31.5239 2.4158 33.4397 4.77057 33.4397H26.3229C27.7654 33.4439 29.0203 32.1869 28.9272 30.6894L32.4013 24.2636C32.8333 23.6919 33.1792 23.1294 33.4832 22.6342C34.0441 21.7313 33.9107 20.5758 33.159 19.824L32.1735 18.8386L36.3455 14.666C36.5515 14.46 36.5514 14.1261 36.3455 13.9202C36.1396 13.7145 35.8057 13.7144 35.5997 13.9204ZM23.0374 7.24577C22.5563 7.24577 22.1648 6.85434 22.1648 6.37319V4.36056L25.05 7.2457L23.0374 7.24577ZM28.4591 29.3376C27.987 28.6645 27.2057 28.2232 26.323 28.2232H26.1489L28.7487 24.2698C28.9087 24.0264 28.8411 23.6995 28.5978 23.5394C28.3545 23.3795 28.0275 23.4469 27.8675 23.6902L24.8866 28.2232H24.321C24.3051 27.2952 24.004 26.4356 23.5028 25.7273L26.7322 22.4979C26.9381 22.2919 26.9381 21.958 26.7322 21.7521C26.5262 21.5462 26.1923 21.5462 25.9865 21.7521L22.7959 24.9426C22.0201 24.2624 21.0077 23.8462 19.8997 23.8353L20.9957 23.1145C21.239 22.9545 21.3066 22.6275 21.1466 22.3841C20.9867 22.1408 20.6596 22.0733 20.4162 22.2332L18.8973 23.2321C18.3885 22.3329 17.4858 21.6913 16.4423 21.5277C16.5417 21.4222 16.6588 21.3317 16.7918 21.2598L24.3846 17.1548L31.3046 24.0747L28.4591 29.3376ZM32.4132 20.57C32.8165 20.9734 32.8882 21.5935 32.5858 22.0802C32.3679 22.4352 32.1448 22.7985 31.8905 23.1692L25.2906 16.5693C25.6431 16.3296 26.0573 16.0684 26.3815 15.872C26.866 15.5713 27.4861 15.6427 27.8894 16.0462L32.4132 20.57Z" fill="#222B45"/>
<path d="M22.5783 20.8115C22.3349 20.9715 22.2673 21.2986 22.4274 21.5419C22.5287 21.6959 22.6969 21.7796 22.8684 21.7796C22.9679 21.7796 23.0684 21.7515 23.1577 21.6928L24.7939 20.6169C25.0372 20.4569 25.1048 20.1298 24.9448 19.8865C24.7847 19.6432 24.4577 19.5756 24.2144 19.7356L22.5783 20.8115Z" fill="#222B45"/>
<path d="M8.43164 8.6246H14.0924C14.3836 8.6246 14.6197 8.38856 14.6197 8.09726C14.6197 7.80595 14.3836 7.56992 14.0924 7.56992H8.43164C8.14041 7.56992 7.9043 7.80595 7.9043 8.09726C7.9043 8.38856 8.14041 8.6246 8.43164 8.6246Z" fill="#222B45"/>
<path d="M8.43164 12.6736H20.7059C20.9971 12.6736 21.2332 12.4375 21.2332 12.1462C21.2332 11.8549 20.9971 11.6189 20.7059 11.6189H8.43164C8.14041 11.6189 7.9043 11.8549 7.9043 12.1462C7.9043 12.4375 8.14041 12.6736 8.43164 12.6736Z" fill="#222B45"/>
<path d="M8.43164 15.2868H20.7059C20.9971 15.2868 21.2332 15.0507 21.2332 14.7594C21.2332 14.4681 20.9971 14.2321 20.7059 14.2321H8.43164C8.14041 14.2321 7.9043 14.4681 7.9043 14.7594C7.9043 15.0507 8.14041 15.2868 8.43164 15.2868Z" fill="#222B45"/>
<path d="M8.43164 17.8999H16.9377C17.2289 17.8999 17.465 17.6639 17.465 17.3726C17.465 17.0813 17.2289 16.8452 16.9377 16.8452H8.43164C8.14041 16.8452 7.9043 17.0813 7.9043 17.3726C7.9043 17.6639 8.14041 17.8999 8.43164 17.8999Z" fill="#222B45"/>
</g>
<defs>
<clipPath id="clip0_10_1283">
<rect width="36" height="36" fill="white" transform="translate(0.5)"/>
</clipPath>
</defs>
</svg>
