<svg width="37" height="36" viewBox="0 0 37 36" fill="none" xmlns="http://www.w3.org/2000/svg">
<path fill-rule="evenodd" clip-rule="evenodd" d="M4.38672 24.4487C6.61696 23.1053 12.3769 23.7092 15.6734 26.3681C18.8524 24.6939 22.0193 23.6575 25.1644 23.7312L20.1957 17.1858C19.4363 16.1872 18.6451 14.1822 18.6411 12.4502L18.6192 2.97885H11.478L11.4561 12.4502C11.4521 14.1822 10.6608 16.1873 9.90351 17.1858L4.38672 24.4487Z" fill="#F9F7F8"/>
<path fill-rule="evenodd" clip-rule="evenodd" d="M2.08484 28.6303C9.3515 29.6269 13.0227 26.9162 15.6735 24.375C12.377 21.7162 6.61704 23.1053 4.3868 24.4487L3.48989 25.6286C2.86608 26.4519 2.37382 27.5122 2.08484 28.6303Z" fill="#A1D4FF"/>
<path fill-rule="evenodd" clip-rule="evenodd" d="M6.00508 35.4726H15.0496H24.0921C25.6228 35.4726 26.6791 34.9225 27.3528 34.0655C28.8895 31.6299 27.8032 27.3407 26.6691 25.7124L25.1644 23.7312C21.4991 21.6245 18.8524 22.7008 15.6734 24.375C12.333 26.1349 8.40471 28.5546 2.08467 28.6303C1.25561 31.8153 2.05281 35.4726 6.00508 35.4726Z" fill="#22A6FE"/>
<path fill-rule="evenodd" clip-rule="evenodd" d="M30.1391 18.7584C31.0958 19.3982 32.6504 19.3982 33.609 18.7584V5.52606H26.6692V18.7584C27.6278 18.1186 29.1804 18.1186 30.1391 18.7584Z" fill="#F9F7F8"/>
<path fill-rule="evenodd" clip-rule="evenodd" d="M26.6692 6.22962H33.609H33.7525C34.5578 6.22962 35.2174 5.52009 35.2174 4.65307C35.2174 3.78408 34.5578 3.07455 33.7525 3.07455H26.5257C25.7185 3.07455 25.0608 3.78408 25.0608 4.65307C25.0608 5.52009 25.7185 6.22962 26.5257 6.22962H26.6692Z" fill="#A1D4FF"/>
<path fill-rule="evenodd" clip-rule="evenodd" d="M11.4781 3.68247H18.6192H18.9401C19.8091 3.68247 20.5187 2.97294 20.5187 2.10395C20.5187 1.23693 19.8072 0.527405 18.9401 0.527405H11.1573C10.2903 0.527405 9.57874 1.23693 9.57874 2.10395C9.57874 2.97294 10.2883 3.68247 11.1573 3.68247H11.4781Z" fill="#A1D4FF"/>
<path fill-rule="evenodd" clip-rule="evenodd" d="M13.6565 18.1963C13.6565 18.9657 14.2803 19.5895 15.0476 19.5895C15.8169 19.5895 16.4408 18.9657 16.4408 18.1963C16.4408 17.427 15.817 16.8051 15.0476 16.8051C14.2803 16.8051 13.6565 17.427 13.6565 18.1963Z" fill="#A1D4FF"/>
<path fill-rule="evenodd" clip-rule="evenodd" d="M18.384 30.3105C18.384 31.4904 19.3407 32.447 20.5186 32.447C21.6985 32.447 22.6552 31.4904 22.6552 30.3105C22.6552 29.1305 21.6985 28.1758 20.5186 28.1758C19.3407 28.1758 18.384 29.1305 18.384 30.3105Z" fill="#A1D4FF"/>
<path fill-rule="evenodd" clip-rule="evenodd" d="M8.48255 32.8058C9.20002 32.8058 9.782 32.2239 9.782 31.5063C9.782 30.7908 9.20002 30.2088 8.48255 30.2088C7.76508 30.2088 7.18311 30.7907 7.18311 31.5063C7.18304 32.2239 7.76501 32.8058 8.48255 32.8058Z" fill="#A1D4FF"/>
<path fill-rule="evenodd" clip-rule="evenodd" d="M18.6412 12.4502L18.6192 3.68246H16.4149L16.4369 12.4502C16.4409 14.1822 17.2321 16.1873 17.9915 17.1858L22.1231 22.6289C23.0738 22.7605 24.0743 23.1053 25.1645 23.7312L20.1958 17.1858C19.4364 16.1873 18.6452 14.1822 18.6412 12.4502Z" fill="#DDDAEC"/>
<path fill-rule="evenodd" clip-rule="evenodd" d="M26.6074 25.6286L25.1645 23.7312C24.0743 23.1053 23.0737 22.7605 22.123 22.629L22.9621 23.7312C25.1146 26.5694 25.6468 35.4727 20.8854 35.4727H24.0922C25.6229 35.4727 26.6792 34.9225 27.3529 34.0655C26.9244 33.4875 26.6692 32.7739 26.6692 32.0026V25.7123L26.6074 25.6286Z" fill="#0593FC"/>
<path fill-rule="evenodd" clip-rule="evenodd" d="M20.5187 2.10389C20.5187 1.23687 19.8072 0.527344 18.9401 0.527344H16.7418C17.6068 0.529313 18.3144 1.23891 18.3144 2.10389C18.3144 2.97288 17.6048 3.68241 16.7358 3.68241H18.6193H18.9402C19.8091 3.68248 20.5187 2.97288 20.5187 2.10389Z" fill="#80B4FB"/>
<path fill-rule="evenodd" clip-rule="evenodd" d="M33.6091 18.0548V6.22961H31.8273V18.0548V18.5331C32.469 18.5411 33.1167 18.3817 33.6091 18.0548Z" fill="#DDDAEC"/>
<path fill-rule="evenodd" clip-rule="evenodd" d="M35.2175 4.65307C35.2175 3.78408 34.5578 3.07455 33.7526 3.07455H31.9747C32.7779 3.07652 33.4356 3.78612 33.4356 4.65307C33.4356 5.52009 32.7759 6.22962 31.9707 6.22962H33.609H33.7525C34.5577 6.22962 35.2175 5.52009 35.2175 4.65307Z" fill="#80B4FB"/>
<path fill-rule="evenodd" clip-rule="evenodd" d="M26.6692 25.7124V32.0027C26.6692 32.774 26.9243 33.4875 27.3528 34.0656C27.9727 34.8987 28.9572 35.4488 30.0654 35.4727H30.2129C32.0864 35.4329 33.6091 33.8862 33.6091 32.0027V18.0548C32.6505 18.6946 31.0959 18.6946 30.1392 18.0548C29.1805 17.4151 27.6279 17.4151 26.6693 18.0548V25.7124H26.6692Z" fill="#EB5468"/>
<path fill-rule="evenodd" clip-rule="evenodd" d="M30.1391 24.361C30.8247 24.361 31.3807 23.8049 31.3807 23.1193C31.3807 22.4316 30.8247 21.8756 30.1391 21.8756C29.4515 21.8756 28.8954 22.4317 28.8954 23.1193C28.8954 23.8049 29.4514 24.361 30.1391 24.361Z" fill="#A1D4FF"/>
<path fill-rule="evenodd" clip-rule="evenodd" d="M33.6091 32.0027V18.0548C33.1168 18.3817 32.469 18.5412 31.8273 18.5332V32.0027C31.8273 33.6031 30.7271 34.9604 29.2483 35.3571C29.5094 35.4268 29.7825 35.4667 30.0655 35.4727H30.213C32.0864 35.4328 33.6091 33.8861 33.6091 32.0027Z" fill="#E5384F"/>
<path d="M12.0091 28.6271L12.0031 28.6331C11.7965 28.8384 11.7956 29.1723 12.001 29.3788C12.104 29.4825 12.2395 29.5343 12.3749 29.5343C12.5093 29.5343 12.6438 29.4832 12.7467 29.3809L12.7527 29.3749C12.9593 29.1696 12.9602 28.8357 12.7548 28.6292C12.5495 28.4227 12.2156 28.4217 12.0091 28.6271Z" fill="#222B45"/>
<path d="M16.313 26.94L16.307 26.9459C16.1011 27.1519 16.1011 27.4858 16.307 27.6917C16.41 27.7946 16.545 27.8461 16.6799 27.8461C16.8148 27.8461 16.9498 27.7947 17.0528 27.6917L17.0588 27.6857C17.2647 27.4797 17.2647 27.1458 17.0588 26.94C16.8529 26.734 16.519 26.734 16.313 26.94Z" fill="#222B45"/>
<path d="M16.9681 18.1963C16.9681 17.1385 16.1075 16.2778 15.0496 16.2778C13.9906 16.2778 13.1292 17.1384 13.1292 18.1963C13.1292 19.2553 13.9907 20.1168 15.0496 20.1168C16.1075 20.1168 16.9681 19.2553 16.9681 18.1963ZM14.1838 18.1963C14.1838 17.72 14.5722 17.3325 15.0496 17.3325C15.5259 17.3325 15.9135 17.72 15.9135 18.1963C15.9135 18.6737 15.526 19.0621 15.0496 19.0621C14.5722 19.0621 14.1838 18.6737 14.1838 18.1963Z" fill="#222B45"/>
<path d="M20.5186 27.6485C19.0508 27.6485 17.8567 28.8426 17.8567 30.3105C17.8567 31.7794 19.0508 32.9744 20.5186 32.9744C21.9875 32.9744 23.1824 31.7794 23.1824 30.3105C23.1824 28.8427 21.9875 27.6485 20.5186 27.6485ZM20.5186 31.9198C19.6324 31.9198 18.9114 31.1979 18.9114 30.3105C18.9114 29.4243 19.6324 28.7033 20.5186 28.7033C21.4059 28.7033 22.1278 29.4243 22.1278 30.3105C22.1278 31.1979 21.4059 31.9198 20.5186 31.9198Z" fill="#222B45"/>
<path d="M8.48255 29.6815C7.47525 29.6815 6.65576 30.5002 6.65576 31.5064C6.65576 32.5138 7.47525 33.3333 8.48255 33.3333C9.48985 33.3333 10.3093 32.5138 10.3093 31.5064C10.3093 30.5001 9.48985 29.6815 8.48255 29.6815ZM8.48255 32.2785C8.05681 32.2785 7.71045 31.9322 7.71045 31.5063C7.71045 31.0817 8.05681 30.7361 8.48255 30.7361C8.90829 30.7361 9.25465 31.0817 9.25465 31.5063C9.25465 31.9322 8.90829 32.2785 8.48255 32.2785Z" fill="#222B45"/>
<path d="M28.9571 27.225L28.9511 27.231C28.7451 27.4369 28.7451 27.7709 28.9511 27.9767C29.054 28.0797 29.189 28.1312 29.324 28.1312C29.4589 28.1312 29.5939 28.0797 29.6968 27.9767L29.7028 27.9707C29.9087 27.7648 29.9087 27.4309 29.7028 27.225C29.4969 27.0191 29.163 27.0191 28.9571 27.225Z" fill="#222B45"/>
<path d="M30.0823 31.252L30.0763 31.258C29.8697 31.4633 29.8688 31.7972 30.0742 32.0037C30.1773 32.1074 30.3127 32.1593 30.4481 32.1593C30.5826 32.1593 30.7171 32.1081 30.8199 32.0058L30.8259 31.9999C31.0325 31.7945 31.0334 31.4606 30.828 31.2541C30.6227 31.0476 30.2888 31.0466 30.0823 31.252Z" fill="#222B45"/>
<path d="M30.1391 24.8884C31.1145 24.8884 31.9081 24.0947 31.9081 23.1193C31.9081 22.1427 31.1145 21.3483 30.1391 21.3483C29.1625 21.3483 28.368 22.1427 28.368 23.1193C28.368 24.0947 29.1625 24.8884 30.1391 24.8884ZM30.1391 22.403C30.533 22.403 30.8534 22.7243 30.8534 23.1193C30.8534 23.5132 30.533 23.8337 30.1391 23.8337C29.7441 23.8337 29.4227 23.5132 29.4227 23.1193C29.4227 22.7243 29.7441 22.403 30.1391 22.403Z" fill="#222B45"/>
<path d="M33.7525 2.54721H26.5257C25.4271 2.54721 24.5335 3.49193 24.5335 4.65307C24.5335 5.6745 25.2264 6.52788 26.1419 6.71738V24.1436L20.6154 16.8666C19.907 15.935 19.1721 14.0279 19.1684 12.4488L19.1478 4.19941C20.2118 4.09472 21.0459 3.19493 21.0459 2.10382C21.046 0.943805 20.1012 0 18.9401 0H11.1572C9.99599 0 9.05134 0.943805 9.05134 2.10389C9.05134 3.19493 9.88546 4.09479 10.9494 4.19948V12.4488C10.9458 14.0264 10.191 15.9341 9.48355 16.8668L7.72166 19.1869C7.54553 19.4188 7.59081 19.7497 7.8227 19.9258C7.91805 19.9982 8.03012 20.0332 8.14129 20.0332C8.30055 20.0332 8.45791 19.9614 8.56162 19.8248L10.3237 17.5045C11.0974 16.4846 11.9197 14.4643 11.9798 12.6467H13.7701C14.0613 12.6467 14.2974 12.4106 14.2974 12.1193C14.2974 11.8281 14.0613 11.592 13.7701 11.592H11.9856L11.9901 9.8344H13.7702C14.0614 9.8344 14.2975 9.59829 14.2975 9.30705C14.2975 9.01582 14.0614 8.77971 13.7702 8.77971H11.9927L11.9972 7.02211H13.7702C14.0614 7.02211 14.2975 6.786 14.2975 6.49477C14.2975 6.20353 14.0614 5.96742 13.7702 5.96742H11.9998L12.0042 4.20982H18.0932V12.451C18.0976 14.3194 18.9735 16.4497 19.7758 17.5047L23.4966 22.4042C22.24 22.0006 21.007 21.9335 19.7193 22.1888C18.3742 22.4554 17.1019 23.0378 15.7258 23.7533C12.9547 21.7626 8.83183 22.1965 6.07797 23.1247L7.10896 21.7822C7.28636 21.5513 7.24291 21.2202 7.01193 21.0428C6.78081 20.8654 6.44985 20.9088 6.27245 21.1398L3.07141 25.3077C2.2517 26.3764 1.63675 27.8461 1.38419 29.3401C1.11215 30.9492 1.27373 32.4667 1.83911 33.6129C2.3763 34.7019 3.53505 36 6.00512 36H24.0922C25.4194 36 26.5284 35.6046 27.34 34.8527C28.0617 35.5617 29.05 36 30.1391 36C32.3432 36 34.1364 34.2068 34.1364 32.0026V14.3576C34.1364 14.0664 33.9003 13.8303 33.609 13.8303C33.3178 13.8303 33.0817 14.0664 33.0817 14.3576V17.7477C32.2896 18.1323 31.1397 18.0896 30.4318 17.6162C29.5421 17.0224 28.2578 16.8933 27.1965 17.2288V15.1958H28.9612C29.2525 15.1958 29.4886 14.9597 29.4886 14.6685C29.4886 14.3772 29.2525 14.1411 28.9612 14.1411H27.1965V12.3815H28.9612C29.2525 12.3815 29.4886 12.1454 29.4886 11.8542C29.4886 11.563 29.2525 11.3269 28.9612 11.3269H27.1965V9.56925H28.9612C29.2525 9.56925 29.4886 9.33314 29.4886 9.04191C29.4886 8.75067 29.2525 8.51456 28.9612 8.51456H27.1965V6.75703H33.0817V11.924C33.0817 12.2153 33.3178 12.4514 33.609 12.4514C33.9003 12.4514 34.1364 12.2153 34.1364 11.924V6.71745C35.0519 6.52795 35.7448 5.6745 35.7448 4.65314C35.7448 3.49193 34.851 2.54721 33.7525 2.54721ZM11.1572 3.15513C10.5775 3.15513 10.106 2.68355 10.106 2.10389C10.106 1.52536 10.5776 1.05469 11.1572 1.05469H18.9401C19.5197 1.05469 19.9913 1.52536 19.9913 2.10389C19.9913 2.68355 19.5197 3.15513 18.9401 3.15513H11.1572ZM3.90812 25.9499L4.75961 24.8413C6.87679 23.623 11.6304 22.5771 14.6579 24.3188C14.6183 24.3401 14.5792 24.361 14.5394 24.3823C11.4816 26.0203 8.03223 27.8661 2.80091 28.0825C3.07984 27.2737 3.46234 26.531 3.90812 25.9499ZM24.0922 34.9453H6.00512C4.45719 34.9453 3.37382 34.3401 2.78502 33.1464C2.23251 32.0263 2.2015 30.5514 2.50321 29.1483C8.17265 28.9877 11.9716 26.9544 15.0373 25.3121C18.5608 23.4246 21.1144 22.0574 24.814 24.1392L26.1418 25.8876V32.0027C26.1418 32.7376 26.342 33.4263 26.6894 34.0186C26.0675 34.6338 25.1959 34.9453 24.0922 34.9453ZM29.8459 18.4932C30.4141 18.8731 31.1435 19.0631 31.8733 19.0631C32.2857 19.0631 32.6981 19.0022 33.0816 18.8809V32.0026C33.0816 33.6252 31.7616 34.9453 30.139 34.9453C28.5165 34.9453 27.1965 33.6253 27.1965 32.0026V18.3619C27.988 17.9779 29.1379 18.0206 29.8459 18.4932ZM33.7525 5.70234H26.5257C26.0087 5.70234 25.5881 5.23167 25.5881 4.65314C25.5881 4.07348 26.0088 3.60197 26.5257 3.60197H33.7525C34.2696 3.60197 34.6901 4.07355 34.6901 4.65314C34.6901 5.2316 34.2695 5.70234 33.7525 5.70234Z" fill="#222B45"/>
</svg>
