<svg width="37" height="36" viewBox="0 0 37 36" fill="none" xmlns="http://www.w3.org/2000/svg">
<path d="M35.375 20.25H1.625V12.9375L9.5 10.6875L14.3577 3.18037C15.1869 1.899 16.6094 1.125 18.1355 1.125H27.2986C29.1222 1.125 30.7653 2.22525 31.4594 3.91162L34.25 10.6875H35.375" fill="#2B74CA"/>
<path d="M11.1875 16.875C20.8181 16.875 28.625 11.5864 28.625 5.0625C28.625 3.69112 28.2762 2.37544 27.6418 1.15088C27.5276 1.14188 27.4151 1.125 27.2986 1.125H18.1355C16.6089 1.125 15.1869 1.899 14.3572 3.18037L9.5 10.6875L1.625 12.9375V14.9389C4.37112 16.1618 7.65556 16.875 11.1875 16.875Z" fill="#3D98F7"/>
<path d="M30.3125 33.7877C30.5347 33.9109 30.7524 34.0431 30.965 34.1848L31.3475 34.4396C31.7727 34.7237 32.2728 34.875 32.7841 34.875C34.2151 34.875 35.375 33.7151 35.375 32.2841C35.375 31.7728 35.2237 31.2728 34.9402 30.8469L34.5296 30.2304C33.6138 28.8579 33.125 27.2441 33.125 25.5938C33.125 23.9434 33.6138 22.3296 34.529 20.9565L34.9396 20.34C35.2237 19.9147 35.375 19.4147 35.375 18.9034C35.375 17.4724 34.2151 16.3125 32.7841 16.3125C32.2728 16.3125 31.7728 16.4638 31.3469 16.7479L30.9644 17.0027C29.4395 18.0197 27.6462 18.5625 25.8125 18.5625C23.9788 18.5625 22.1855 18.0197 20.66 17.0027L20.2775 16.7479C19.8522 16.4638 19.3522 16.3125 18.8409 16.3125C17.4099 16.3125 16.25 17.4724 16.25 18.9034C16.25 19.4147 16.4013 19.9147 16.6854 20.3406L17.096 20.9571C18.0112 22.3296 18.5 23.9434 18.5 25.5938C18.5 27.2441 18.0112 28.8579 17.096 30.231L16.6854 30.8475C16.4013 31.2727 16.25 31.7728 16.25 32.2841C16.25 33.7151 17.4099 34.875 18.8409 34.875C19.3522 34.875 19.8522 34.7237 20.2781 34.4402L20.6606 34.1854C21.4632 33.6504 22.3396 33.2466 23.2576 32.9839" fill="#F5CF88"/>
<path d="M20.66 17.0027L20.2775 16.7479C19.8522 16.4638 19.3522 16.3125 18.8409 16.3125C17.4099 16.3125 16.25 17.4724 16.25 18.9034C16.25 19.4147 16.4013 19.9147 16.6848 20.3406L17.0954 20.9571C18.0112 22.3296 18.5 23.9434 18.5 25.5938C18.5 27.2441 18.0112 28.8579 17.096 30.231L17.0066 30.3654C24.3972 30.1714 30.3125 25.4666 30.3125 19.6875C30.3125 18.9523 30.2163 18.2346 30.0341 17.541C28.7308 18.2064 27.2863 18.5625 25.8125 18.5625C23.9788 18.5625 22.1855 18.0197 20.66 17.0027Z" fill="#FADFB2"/>
<path d="M30.3125 35.4375V32.625L31.4375 31.5V25.3125C31.4375 24.6909 30.9341 24.1875 30.3125 24.1875C29.6909 24.1875 29.1875 24.6909 29.1875 25.3125V23.0625C29.1875 22.4409 28.6841 21.9375 28.0625 21.9375C27.4409 21.9375 26.9375 22.4409 26.9375 23.0625V21.9375C26.9375 21.3159 26.4341 20.8125 25.8125 20.8125C25.1909 20.8125 24.6875 21.3159 24.6875 21.9375V23.0625C24.6875 22.4409 24.1841 21.9375 23.5625 21.9375C22.9409 21.9375 22.4375 22.4409 22.4375 23.0625V28.6875C22.4375 28.0659 21.9341 27.5625 21.3125 27.5625C20.6909 27.5625 20.1875 28.0659 20.1875 28.6875V30.9375L23.5625 33.1875V35.4375" fill="#EFBE9A"/>
<path d="M29.1796 4.81725L31.4375 10.6875H12.875L16.7163 4.446C17.1258 3.78056 17.8509 3.375 18.6322 3.375H27.0798C28.0107 3.375 28.8455 3.94819 29.1796 4.81725Z" fill="#C7E2FC"/>
<path d="M16.5313 9C22.5782 9 27.5287 6.615 28.0142 3.582C27.7267 3.45038 27.41 3.375 27.0799 3.375H18.6322C17.8509 3.375 17.1253 3.78056 16.7158 4.446L14.0034 8.85319C14.8185 8.94656 15.6617 9 16.5313 9Z" fill="#EBF7FE"/>
<path d="M3.875 15.75V12.2946L1.625 12.9375V15.75H3.875Z" fill="#F9D18B"/>
<path d="M9.5 24.75C11.9853 24.75 14 22.7353 14 20.25C14 17.7647 11.9853 15.75 9.5 15.75C7.01472 15.75 5 17.7647 5 20.25C5 22.7353 7.01472 24.75 9.5 24.75Z" fill="#4D5D7A"/>
<path d="M9.5 22.5C10.7426 22.5 11.75 21.4926 11.75 20.25C11.75 19.0074 10.7426 18 9.5 18C8.25736 18 7.25 19.0074 7.25 20.25C7.25 21.4926 8.25736 22.5 9.5 22.5Z" fill="#8892A0"/>
<path d="M8.375 32.0625C9.92806 32.0625 11.1875 33.3219 11.1875 34.875C11.1875 33.3219 12.4469 32.0625 14 32.0625C12.4469 32.0625 11.1875 30.8031 11.1875 29.25C11.1875 30.8031 9.92806 32.0625 8.375 32.0625Z" fill="#8BD2F5"/>
<path d="M1.625 28.125C3.17806 28.125 4.4375 29.3844 4.4375 30.9375C4.4375 29.3844 5.69694 28.125 7.25 28.125C5.69694 28.125 4.4375 26.8656 4.4375 25.3125C4.4375 26.8656 3.17806 28.125 1.625 28.125Z" fill="#8BD2F5"/>
<path d="M1.625 3.9375C3.17806 3.9375 4.4375 5.19694 4.4375 6.75C4.4375 5.19694 5.69694 3.9375 7.25 3.9375C5.69694 3.9375 4.4375 2.67806 4.4375 1.125C4.4375 2.67806 3.17806 3.9375 1.625 3.9375Z" fill="#8BD2F5"/>
<path d="M24.125 35.4375H23V33.4884L19.8753 31.4055C19.7189 31.3009 19.625 31.1254 19.625 30.9375V28.6875C19.625 27.7571 20.3821 27 21.3125 27C22.2429 27 23 27.7571 23 28.6875V30.375H21.875V28.6875C21.875 28.3776 21.623 28.125 21.3125 28.125C21.002 28.125 20.75 28.3776 20.75 28.6875V30.6366L23.8747 32.7195C24.0311 32.8241 24.125 32.9996 24.125 33.1875V35.4375Z" fill="#222B45"/>
<path d="M23 28.6875H21.875V23.0625C21.875 22.1321 22.6321 21.375 23.5625 21.375C24.4929 21.375 25.25 22.1321 25.25 23.0625V27H24.125V23.0625C24.125 22.7526 23.873 22.5 23.5625 22.5C23.252 22.5 23 22.7526 23 23.0625V28.6875Z" fill="#222B45"/>
<path d="M27.5 24.1875H26.375V21.9375C26.375 21.6276 26.123 21.375 25.8125 21.375C25.502 21.375 25.25 21.6276 25.25 21.9375V24.1875H24.125V21.9375C24.125 21.0071 24.8821 20.25 25.8125 20.25C26.7429 20.25 27.5 21.0071 27.5 21.9375V24.1875Z" fill="#222B45"/>
<path d="M27.5 27H26.375V23.0625C26.375 22.1321 27.1321 21.375 28.0625 21.375C28.9929 21.375 29.75 22.1321 29.75 23.0625V25.3125H28.625V23.0625C28.625 22.7526 28.373 22.5 28.0625 22.5C27.752 22.5 27.5 22.7526 27.5 23.0625V27Z" fill="#222B45"/>
<path d="M30.875 35.4375H29.75V32.625C29.75 32.4759 29.8091 32.3325 29.9148 32.2273L30.875 31.2671V25.3125C30.875 25.0026 30.623 24.75 30.3125 24.75C30.002 24.75 29.75 25.0026 29.75 25.3125V27H28.625V25.3125C28.625 24.3821 29.3821 23.625 30.3125 23.625C31.2429 23.625 32 24.3821 32 25.3125V31.5C32 31.6491 31.9409 31.7925 31.8352 31.8977L30.875 32.8579V35.4375Z" fill="#222B45"/>
<path d="M32.7847 35.4375C32.1603 35.4375 31.5551 35.2541 31.0359 34.9082L30.6534 34.6534C30.4542 34.5201 30.2495 34.3958 30.0402 34.2804L30.5853 33.2961C30.821 33.4266 31.0516 33.5672 31.2772 33.7174L31.6597 33.9722C31.9944 34.1949 32.3831 34.3125 32.7847 34.3125C33.9029 34.3125 34.8125 33.4029 34.8125 32.2847C34.8125 31.8831 34.6949 31.4938 34.4722 31.1597L34.0616 30.5432C33.0806 29.0728 32.5625 27.3617 32.5625 25.5938C32.5625 23.8258 33.0806 22.1147 34.061 20.6443L34.4716 20.0278C34.6944 19.6937 34.8119 19.3044 34.8119 18.9028C34.8125 17.7846 33.9029 16.875 32.7847 16.875C32.3831 16.875 31.9944 16.9926 31.6597 17.2153L31.2772 17.4701C29.6532 18.5529 27.7638 19.125 25.8125 19.125C23.8612 19.125 21.9717 18.5529 20.3478 17.4707L19.9653 17.2159C19.6306 16.9931 19.2419 16.8756 18.8403 16.8756C17.7221 16.875 16.8125 17.7846 16.8125 18.9028C16.8125 19.3044 16.9301 19.6937 17.1528 20.0278L17.5634 20.6443C18.5444 22.1147 19.0625 23.8258 19.0625 25.5938C19.0625 27.3617 18.5444 29.0728 17.564 30.5432L17.1534 31.1597C16.9306 31.4938 16.8131 31.8831 16.8131 32.2847C16.8125 33.4029 17.7221 34.3125 18.8403 34.3125C19.2419 34.3125 19.6306 34.1949 19.9653 33.9722L20.3478 33.7174C21.1961 33.1521 22.1219 32.7234 23.1018 32.4427L23.4117 33.5244C22.5444 33.7725 21.7231 34.1528 20.9722 34.6534L20.5897 34.9082C20.0699 35.2541 19.4652 35.4375 18.8403 35.4375C17.1022 35.4375 15.6875 34.0228 15.6875 32.2847C15.6875 31.6603 15.8703 31.0556 16.2168 30.5359L16.6274 29.9194C17.4847 28.6341 17.9375 27.1384 17.9375 25.5938C17.9375 24.0491 17.4847 22.5534 16.628 21.2687L16.2174 20.6522C15.8709 20.1324 15.6881 19.5272 15.6881 18.9034C15.6875 17.1647 17.1022 15.75 18.8403 15.75C19.4647 15.75 20.0699 15.9334 20.5891 16.2793L20.9716 16.5341C22.4099 17.4932 24.0839 18 25.8125 18C27.5411 18 29.2151 17.4932 30.6528 16.5347L31.0353 16.2799C31.5551 15.9334 32.1597 15.75 32.7847 15.75C34.5228 15.75 35.9375 17.1647 35.9375 18.9028C35.9375 19.5272 35.7547 20.1319 35.4082 20.6516L34.9976 21.2681C34.1403 22.5534 33.6875 24.0491 33.6875 25.5938C33.6875 27.1384 34.1403 28.6341 34.997 29.9188L35.4076 30.5353C35.7541 31.0551 35.9369 31.6603 35.9369 32.2841C35.9375 34.0228 34.5228 35.4375 32.7847 35.4375Z" fill="#222B45"/>
<path d="M9.5 25.3125C6.70831 25.3125 4.4375 23.0411 4.4375 20.25C4.4375 17.4589 6.70831 15.1875 9.5 15.1875C12.2917 15.1875 14.5625 17.4589 14.5625 20.25C14.5625 23.0411 12.2917 25.3125 9.5 25.3125ZM9.5 16.3125C7.32931 16.3125 5.5625 18.0788 5.5625 20.25C5.5625 22.4212 7.32931 24.1875 9.5 24.1875C11.6707 24.1875 13.4375 22.4212 13.4375 20.25C13.4375 18.0788 11.6707 16.3125 9.5 16.3125Z" fill="#222B45"/>
<path d="M5 20.8125H1.625C1.31394 20.8125 1.0625 20.5605 1.0625 20.25V12.9375C1.0625 12.6866 1.229 12.4656 1.47087 12.3969L9.14281 10.2049L13.8853 2.87438C14.8224 1.42706 16.4114 0.5625 18.1361 0.5625H27.2992C29.3585 0.5625 31.1962 1.79325 31.9803 3.69731L34.6269 10.125H35.9375V11.25H34.25C34.0222 11.25 33.8163 11.1122 33.7297 10.9018L30.9397 4.12594C30.3299 2.64488 28.9006 1.6875 27.2992 1.6875H18.1361C16.7945 1.6875 15.5587 2.35969 14.8302 3.48581L9.9725 10.9929C9.89825 11.1071 9.78575 11.1909 9.65469 11.2281L2.1875 13.3616V19.6875H5V20.8125Z" fill="#222B45"/>
<path d="M9.5 23.0625C7.94919 23.0625 6.6875 21.8008 6.6875 20.25C6.6875 18.6992 7.94919 17.4375 9.5 17.4375C11.0508 17.4375 12.3125 18.6992 12.3125 20.25C12.3125 21.8008 11.0508 23.0625 9.5 23.0625ZM9.5 18.5625C8.56963 18.5625 7.8125 19.3196 7.8125 20.25C7.8125 21.1804 8.56963 21.9375 9.5 21.9375C10.4304 21.9375 11.1875 21.1804 11.1875 20.25C11.1875 19.3196 10.4304 18.5625 9.5 18.5625Z" fill="#222B45"/>
<path d="M14 19.6875H16.8125V20.8125H14V19.6875Z" fill="#222B45"/>
<path d="M3.875 16.3125H1.625V15.1875H3.3125V12.375H4.4375V15.75C4.4375 16.0605 4.18606 16.3125 3.875 16.3125Z" fill="#222B45"/>
<path d="M31.4374 11.25H12.8749C12.6713 11.25 12.4834 11.1398 12.3839 10.962C12.2843 10.7843 12.2888 10.5666 12.3957 10.3927L16.237 4.15125C16.7534 3.31313 17.6483 2.8125 18.6321 2.8125H27.0798C28.2346 2.8125 29.2898 3.537 29.7049 4.61531L31.9628 10.4856C32.0292 10.6588 32.0061 10.8529 31.9015 11.0059C31.7963 11.1589 31.6225 11.25 31.4374 11.25ZM13.8813 10.125H30.6184L28.6548 5.01919C28.4056 4.37231 27.7722 3.9375 27.0798 3.9375H18.6321C18.0415 3.9375 17.5043 4.23788 17.1944 4.74075L13.8813 10.125Z" fill="#222B45"/>
<path d="M21.875 3.375H23V10.6875H21.875V3.375Z" fill="#222B45"/>
<path d="M20.75 12.375H23V13.5H20.75V12.375Z" fill="#222B45"/>
<path d="M29.75 12.375H32V13.5H29.75V12.375Z" fill="#222B45"/>
<path d="M11.1875 35.4375C10.8764 35.4375 10.625 35.1855 10.625 34.875C10.625 33.6341 9.61588 32.625 8.375 32.625C8.06394 32.625 7.8125 32.373 7.8125 32.0625C7.8125 31.752 8.06394 31.5 8.375 31.5C9.61588 31.5 10.625 30.4909 10.625 29.25C10.625 28.9395 10.8764 28.6875 11.1875 28.6875C11.4986 28.6875 11.75 28.9395 11.75 29.25C11.75 30.4909 12.7591 31.5 14 31.5C14.3111 31.5 14.5625 31.752 14.5625 32.0625C14.5625 32.373 14.3111 32.625 14 32.625C12.7591 32.625 11.75 33.6341 11.75 34.875C11.75 35.1855 11.4986 35.4375 11.1875 35.4375ZM10.2386 32.0625C10.6143 32.3122 10.9372 32.6357 11.1875 33.0114C11.4372 32.6357 11.7607 32.3128 12.1364 32.0625C11.7607 31.8128 11.4378 31.4893 11.1875 31.1136C10.9378 31.4893 10.6143 31.8128 10.2386 32.0625Z" fill="#222B45"/>
<path d="M4.4375 31.5C4.12644 31.5 3.875 31.248 3.875 30.9375C3.875 29.6966 2.86588 28.6875 1.625 28.6875C1.31394 28.6875 1.0625 28.4355 1.0625 28.125C1.0625 27.8145 1.31394 27.5625 1.625 27.5625C2.86588 27.5625 3.875 26.5534 3.875 25.3125C3.875 25.002 4.12644 24.75 4.4375 24.75C4.74856 24.75 5 25.002 5 25.3125C5 26.5534 6.00912 27.5625 7.25 27.5625C7.56106 27.5625 7.8125 27.8145 7.8125 28.125C7.8125 28.4355 7.56106 28.6875 7.25 28.6875C6.00912 28.6875 5 29.6966 5 30.9375C5 31.248 4.74856 31.5 4.4375 31.5ZM3.48856 28.125C3.86431 28.3747 4.18775 28.6982 4.4375 29.0739C4.68725 28.6982 5.01069 28.3747 5.38644 28.125C5.01069 27.8753 4.68725 27.5518 4.4375 27.1761C4.18775 27.5518 3.86431 27.8753 3.48856 28.125Z" fill="#222B45"/>
<path d="M4.4375 7.3125C4.12644 7.3125 3.875 7.0605 3.875 6.75C3.875 5.50912 2.86588 4.5 1.625 4.5C1.31394 4.5 1.0625 4.248 1.0625 3.9375C1.0625 3.627 1.31394 3.375 1.625 3.375C2.86588 3.375 3.875 2.36588 3.875 1.125C3.875 0.8145 4.12644 0.5625 4.4375 0.5625C4.74856 0.5625 5 0.8145 5 1.125C5 2.36588 6.00912 3.375 7.25 3.375C7.56106 3.375 7.8125 3.627 7.8125 3.9375C7.8125 4.248 7.56106 4.5 7.25 4.5C6.00912 4.5 5 5.50912 5 6.75C5 7.0605 4.74856 7.3125 4.4375 7.3125ZM3.48856 3.9375C3.86431 4.18725 4.18775 4.51069 4.4375 4.88644C4.68725 4.51069 5.01069 4.18725 5.38644 3.9375C5.01069 3.68775 4.68725 3.36431 4.4375 2.98856C4.18775 3.36431 3.86431 3.68775 3.48856 3.9375Z" fill="#222B45"/>
</svg>
