<svg width="37" height="36" viewBox="0 0 37 36" fill="none" xmlns="http://www.w3.org/2000/svg">
<path d="M28.8444 24.3962L25.0902 22.9423V23.0556C25.0902 23.3273 24.8699 23.5477 24.5981 23.5477H23.1912C22.9194 23.5477 22.6991 23.3273 22.6991 23.0556V22.0164L21.6629 21.6151C21.6361 21.6047 21.6107 21.5918 21.5864 21.5775L18.4937 24.7727L15.3963 21.5709C15.3049 21.6256 15.2092 21.6561 15.1476 21.68L14.2278 22.0366V23.0543C14.2278 23.3268 14.0069 23.5477 13.7344 23.5477H12.3239C12.0514 23.5477 11.8305 23.3268 11.8305 23.0543V22.966L8.14127 24.3963C6.95292 24.8853 5.36182 26.4241 5.36182 28.7074V34.522C5.36182 35.0335 5.77652 35.4482 6.28804 35.4482H30.6975C31.209 35.4482 31.6237 35.0335 31.6237 34.522V28.7074C31.6237 26.7409 30.3648 25.022 28.8444 24.3962Z" fill="#60B8FE"/>
<path d="M8.26556 34.5219V27.4417C8.26556 25.6359 9.26077 24.2964 10.2649 23.5729L8.14139 24.3962C6.95304 24.8852 5.36194 26.424 5.36194 28.7074V34.5219C5.36194 35.0335 5.77664 35.4482 6.28816 35.4482H9.19186C8.68027 35.4482 8.26556 35.0335 8.26556 34.5219Z" fill="#23A8FE"/>
<path d="M15.3964 21.5708L18.4938 24.7726L21.5865 21.5774C21.433 21.4864 21.3351 21.3204 21.3346 21.1371L21.3331 19.2371C20.5369 19.758 19.5866 20.0622 18.5662 20.0622C17.4409 20.0622 16.4533 19.7502 15.648 19.2294V21.134C15.648 21.3652 15.5267 21.4929 15.3964 21.5708Z" fill="#FFBD86"/>
<path d="M17.7034 22.99V19.998C16.9316 19.8819 16.2404 19.6124 15.648 19.2294V21.134C15.648 21.3652 15.5267 21.4929 15.3964 21.5708L17.4188 23.6613C17.5802 23.5154 17.7034 23.3053 17.7034 22.99Z" fill="#F6A96C"/>
<path d="M25.5375 11.9933L25.5046 11.9548L25.48 11.999C25.129 12.6286 24.4422 12.8872 23.6429 12.691L23.5994 12.6803V15.2049C23.5994 15.2339 23.5984 15.2628 23.5974 15.2916L23.5952 15.3684L23.6271 15.3721C23.7189 15.3828 23.8105 15.3882 23.9016 15.3882C24.452 15.3882 24.9795 15.1941 25.3804 14.8374C25.8068 14.458 26.0513 13.9257 26.0513 13.3766C26.0514 12.8728 25.8688 12.3815 25.5375 11.9933Z" fill="#FFBD86"/>
<path d="M24.975 12.5334C24.6148 12.7557 24.1519 12.8159 23.6428 12.691L23.5992 12.6803V15.2049C23.5992 15.2339 23.5983 15.2627 23.5973 15.2916L23.5951 15.3684L23.6269 15.3721C23.7188 15.3828 23.8104 15.3882 23.9014 15.3882C24.2816 15.3882 24.6508 15.2955 24.9749 15.1206V12.5334H24.975Z" fill="#F6A96C"/>
<path d="M13.3882 15.2947C13.3872 15.2649 13.3862 15.2349 13.3862 15.2049V12.6803L13.3427 12.691C12.5492 12.8856 11.8868 12.6463 11.5253 12.0339L11.5007 11.9923L11.4686 12.0284C11.124 12.4168 10.9342 12.8955 10.9342 13.3765C10.9342 13.9256 11.1788 14.4582 11.6052 14.8375C12.006 15.1941 12.5333 15.3881 13.0837 15.3881C13.1747 15.3881 13.2665 15.3827 13.3584 15.3719L13.3902 15.3682L13.3882 15.2947Z" fill="#FFBD86"/>
<path d="M13.3863 15.2049V15.1121C13.247 15.0355 13.1161 14.944 12.9965 14.8376C12.5701 14.4582 12.3255 13.9257 12.3255 13.3766C12.3255 13.1525 12.3672 12.929 12.4461 12.7148C12.0579 12.6258 11.7388 12.3955 11.5254 12.0339L11.5008 11.9923L11.4688 12.0284C11.1241 12.4168 10.9343 12.8955 10.9343 13.3765C10.9343 13.9256 11.1789 14.4582 11.6053 14.8375C12.0061 15.1941 12.5334 15.3881 13.0838 15.3881C13.1748 15.3881 13.2666 15.3827 13.3585 15.3719L13.3903 15.3682L13.3882 15.2946C13.3873 15.2649 13.3863 15.2349 13.3863 15.2049Z" fill="#F6A96C"/>
<path d="M23.6429 12.6911C23.3761 12.6255 23.0964 12.5113 22.8113 12.3513C20.6958 11.1642 18.5153 11.1047 18.492 11.1042C18.4702 11.1047 16.2898 11.1642 14.1742 12.3513C13.8892 12.5113 13.6095 12.6255 13.3427 12.6911L13.3159 12.6976V15.2049C13.3159 16.5416 13.8274 17.8031 14.7561 18.7569C15.7302 19.7573 17.0833 20.3082 18.5661 20.3082C21.3801 20.3082 23.6696 18.0188 23.6696 15.2048V12.6975L23.6429 12.6911Z" fill="#FED2A4"/>
<path d="M16.8423 18.7569C15.9136 17.8031 15.4021 16.5416 15.4021 15.2049V11.7782C15.0014 11.9318 14.5867 12.1198 14.1743 12.3512C13.8894 12.5112 13.6096 12.6255 13.3428 12.691L13.316 12.6975V15.2048C13.316 16.5415 13.8275 17.803 14.7562 18.7568C15.7303 19.7573 17.0834 20.3082 18.5662 20.3082C18.9116 20.3082 19.2489 20.2733 19.5751 20.2075C18.5206 20.0067 17.5744 19.5088 16.8423 18.7569Z" fill="#FFBD86"/>
<path d="M25.5709 10.2036C25.5709 10.2036 23.2425 7.94589 18.4928 7.94589C13.7432 7.94589 11.4148 10.2036 11.4148 10.2036C10.7705 11.8297 11.9946 13.6147 14.1915 12.3819C16.3238 11.1853 18.4928 11.1393 18.4928 11.1393C18.4928 11.1393 20.6618 11.1853 22.7942 12.3819C24.9911 13.6147 26.2151 11.8297 25.5709 10.2036Z" fill="#DFEBFA"/>
<path d="M14.8147 8.45072C14.8147 8.45072 14.8154 8.45009 14.8155 8.44995C12.5387 9.11532 11.4147 10.2035 11.4147 10.2035C10.7704 11.8297 11.9945 13.6147 14.1914 12.3819C14.4766 12.2218 14.7624 12.0829 15.0438 11.9614C14.4315 11.0382 14.3126 9.71818 14.8147 8.45072Z" fill="#B1DBFC"/>
<path d="M25.5709 10.2035V8.69611C25.5709 5.13014 22.6801 2.23938 19.1142 2.23938H17.8715C14.3056 2.23938 11.4148 5.13014 11.4148 8.69611V10.2035C11.4148 10.2035 13.7431 8.0865 18.4928 8.0865C23.2426 8.08657 25.5709 10.2035 25.5709 10.2035Z" fill="#60B8FE"/>
<path d="M13.489 7.87852C13.489 5.54696 14.725 3.50431 16.5773 2.36932C13.6315 2.96867 11.4148 5.57353 11.4148 8.69618V10.2035C11.4148 10.2035 12.1023 9.58001 13.489 9.00971V7.87852Z" fill="#23A8FE"/>
<path d="M17.8715 2.45038H19.1141C19.3533 2.45038 19.5894 2.46381 19.8219 2.4892V1.62133C19.8219 1.00617 19.3186 0.502869 18.7034 0.502869H18.2822C17.667 0.502869 17.1637 1.00617 17.1637 1.62133V2.48913C17.3962 2.46381 17.6323 2.45038 17.8715 2.45038Z" fill="#DFEBFA"/>
<path d="M18.1983 1.62133C18.1983 1.11255 18.543 0.681181 19.0102 0.546884C18.9125 0.51883 18.8098 0.502869 18.7035 0.502869H18.2823C17.6671 0.502869 17.1638 1.00617 17.1638 1.62133V2.48913C17.3963 2.46381 17.6324 2.45031 17.8716 2.45031H18.1984L18.1983 1.62133Z" fill="#B1DBFC"/>
<path d="M25.1752 28.7937L11.7995 28.7943C11.0665 28.8003 10.474 29.3958 10.474 30.1302V35.4482H26.5118V30.1302C26.5117 29.3921 25.9134 28.7937 25.1752 28.7937Z" fill="#FFD301"/>
<path d="M11.7995 28.7943C11.0665 28.8003 10.474 29.3958 10.474 30.1302V35.4482H14.9037V30.1302C14.9037 29.3958 15.4962 28.8003 16.2292 28.7943H11.7995Z" fill="#FFC20C"/>
<path d="M22.6649 22.0031L21.663 21.6151C21.6087 21.5941 21.5601 21.5639 21.5173 21.5275L18.5715 24.5618C18.465 24.6715 18.4668 24.8466 18.5756 24.954L19.9624 26.3241C20.2333 26.5917 20.6786 26.5566 20.9041 26.2497L22.7352 23.7835L22.6649 22.0031Z" fill="#23A8FE"/>
<path d="M15.4647 21.5238C15.3561 21.6097 15.2249 21.65 15.1476 21.68L14.2589 22.0246L14.1886 23.6996L16.0815 26.2499C16.307 26.5567 16.7523 26.5919 17.0231 26.3242L18.4099 24.9541C18.5187 24.8467 18.5206 24.6716 18.414 24.5619L15.4647 21.5238Z" fill="#23A8FE"/>
<path d="M17.8714 2.23944C17.4606 2.23944 17.0588 2.27825 16.6692 2.35166C15.58 3.58846 14.8324 5.89857 14.7814 8.56827C15.7894 8.28892 17.025 8.08656 18.4927 8.08656C19.9603 8.08656 21.196 8.28892 22.204 8.56827C22.153 5.89864 21.4054 3.58846 20.3162 2.35173C19.9266 2.27832 19.5249 2.23951 19.114 2.23951L17.8714 2.23944Z" fill="#23A8FE"/>
<path d="M18.1983 2.23944H17.8715C17.4606 2.23944 17.0589 2.27825 16.6693 2.35159C15.5801 3.58839 14.8325 5.89857 14.7815 8.5682C15.4332 8.38757 16.1806 8.23963 17.0238 8.15722C16.9218 5.73264 17.3663 3.5995 18.1983 2.23944Z" fill="#0193FA"/>
<path d="M23.1711 30.2177H24.6182C24.8978 30.2177 25.1244 29.9911 25.1244 29.7116V22.9556L22.6649 22.0031V29.7116C22.6649 29.9911 22.8915 30.2177 23.1711 30.2177Z" fill="#FEE55A"/>
<path d="M23.8947 29.7116V22.4793L22.6649 22.0031V29.7116C22.6649 29.9911 22.8915 30.2177 23.1711 30.2177H24.4009C24.1213 30.2177 23.8947 29.9911 23.8947 29.7116Z" fill="#FFD301"/>
<path d="M12.3056 30.2177H13.7527C14.0323 30.2177 14.2589 29.9911 14.2589 29.7116V22.0245L11.7994 22.978V29.7116C11.7995 29.9911 12.0261 30.2177 12.3056 30.2177Z" fill="#FEE55A"/>
<path d="M13.0292 29.7116V22.5013L11.7994 22.978V29.7116C11.7994 29.9911 12.0261 30.2178 12.3056 30.2178H13.5354C13.2558 30.2178 13.0292 29.9911 13.0292 29.7116Z" fill="#FFD301"/>
<path d="M6.29519 35.9999H30.7047C31.5062 35.9999 32.1582 35.3479 32.1582 34.5464V32.7031C32.1582 32.4119 31.9222 32.1758 31.6309 32.1758C31.3396 32.1758 31.1036 32.4119 31.1036 32.7031V34.5464C31.1036 34.7663 30.9246 34.9452 30.7047 34.9452H27.0462V30.1546C27.0462 29.2916 26.4565 28.5639 25.6588 28.3527V23.7497L28.6558 24.9104C29.8731 25.414 31.1036 26.8869 31.1036 28.7318V30.2421C31.1036 30.5333 31.3396 30.7695 31.6309 30.7695C31.9222 30.7695 32.1582 30.5333 32.1582 30.2421V28.7318C32.1582 26.6591 30.881 24.6857 29.0522 23.933C29.0487 23.9316 29.0454 23.9302 29.0419 23.9289L21.869 21.151L21.8677 19.7484C23.0917 18.8536 23.9394 17.4748 24.1278 15.8958C24.7182 15.8497 25.277 15.6188 25.7146 15.2295C26.2459 14.7569 26.5505 14.0904 26.5505 13.401C26.5505 12.8948 26.4013 12.3993 26.1254 11.9749C26.3282 11.4211 26.3286 10.7672 26.1052 10.1375V8.72058C26.1052 5.31366 23.653 2.46923 20.421 1.85836C20.4153 1.8573 20.4097 1.85597 20.404 1.85505C20.3881 1.8521 20.3723 1.8488 20.3564 1.84591V1.6458C20.3564 0.738281 19.6181 0 18.7106 0H18.2893C17.3818 0 16.6435 0.738281 16.6435 1.6458V1.84591C16.6276 1.8488 16.6119 1.8521 16.596 1.85505C16.5899 1.85597 16.5839 1.85738 16.5778 1.85857C13.3463 2.46987 10.8945 5.31408 10.8945 8.72065V10.1377C10.6665 10.7805 10.6724 11.448 10.888 12.009C10.6032 12.4297 10.4492 12.9132 10.4492 13.4011C10.4492 14.0907 10.7539 14.7573 11.2853 15.2299C11.7227 15.619 12.2812 15.8498 12.8716 15.8958C13.0151 17.1106 13.548 18.2388 14.4106 19.1247C14.6324 19.3525 14.8729 19.5578 15.1277 19.7421L15.1278 21.1464C15.0979 21.1631 7.98972 23.9167 7.9578 23.929C7.95443 23.9304 7.95105 23.9317 7.94768 23.933C6.45171 24.5487 4.84155 26.313 4.84155 28.7319V34.5464C4.84162 35.3479 5.49363 35.9999 6.29519 35.9999ZM23.1994 22.7973L24.6041 23.3413V29.7148H23.1994V22.7973ZM22.1447 22.3888V23.7054L20.4862 25.9619C20.4512 26.0097 20.3823 26.0151 20.3402 25.9734L19.1288 24.7766L21.6376 22.1924L22.1447 22.3888ZM16.1825 20.3406C16.9153 20.657 17.7249 20.8249 18.5733 20.8249C19.3697 20.8249 20.1271 20.6565 20.8136 20.3553L20.8144 21.1629C20.8147 21.2716 20.8315 21.377 20.8627 21.4764L18.5 23.9103L16.1371 21.4764C16.167 21.3781 16.1825 21.2723 16.1825 21.1584L16.1825 20.3406ZM25.4959 13.4011C25.4959 13.7954 25.3246 14.1649 25.0137 14.4416C24.7794 14.65 24.4851 14.7833 24.1689 14.8306V13.3457C24.7597 13.3433 25.1783 13.1214 25.4232 12.9386C25.4701 13.0879 25.4959 13.2435 25.4959 13.4011ZM25.0506 8.72065V9.21403C24.5185 8.89474 23.7454 8.50873 22.7257 8.19211C22.6437 6.33375 22.2345 4.62551 21.5778 3.32627C23.6243 4.26192 25.0506 6.32721 25.0506 8.72065ZM17.6982 1.6458C17.6982 1.31984 17.9633 1.05469 18.2893 1.05469H18.7106C19.0365 1.05469 19.3017 1.31984 19.3017 1.6458V1.7389C19.2417 1.73735 19.1816 1.73658 19.1212 1.73658H17.8786C17.8183 1.73658 17.7582 1.73735 17.6982 1.7389V1.6458ZM16.9562 2.86341C17.2569 2.81623 17.5649 2.79127 17.8786 2.79127H19.1212C19.435 2.79127 19.7429 2.81623 20.0437 2.86341C20.9182 3.95339 21.5121 5.82652 21.6538 7.91058C20.7485 7.71363 19.6984 7.58363 18.5 7.58363C17.3015 7.58363 16.2515 7.71356 15.3462 7.91051C15.4878 5.82652 16.0816 3.95346 16.9562 2.86341ZM11.9492 8.72065C11.9492 6.32721 13.3756 4.26192 15.4222 3.3262C14.7655 4.62544 14.3562 6.33368 14.2743 8.19204C13.2544 8.50873 12.4813 8.89467 11.9493 9.21396V8.72065H11.9492ZM12.8309 14.8307C12.5145 14.7834 12.2205 14.6502 11.9862 14.4418C11.6752 14.1651 11.5039 13.7955 11.5039 13.4011C11.5039 13.248 11.5331 13.0946 11.5863 12.946C11.8324 13.1273 12.2483 13.3428 12.8309 13.3452V14.8307ZM12.1587 12.0544C11.7931 11.7349 11.6808 11.1263 11.8693 10.5417C12.3309 10.1773 14.5179 8.63831 18.4999 8.63831C22.4542 8.63831 24.6641 10.179 25.131 10.5431C25.3188 11.1273 25.2065 11.7351 24.8412 12.0544C24.4464 12.3996 23.7969 12.3604 23.0593 11.9464C20.8374 10.6997 18.605 10.6385 18.5111 10.6365C18.5073 10.6365 18.5036 10.6365 18.4999 10.6365C18.4962 10.6365 18.4924 10.6365 18.4887 10.6365C18.3948 10.6385 16.1624 10.6997 13.9406 11.9464C13.203 12.3604 12.5535 12.3996 12.1587 12.0544ZM13.8887 15.3572C13.8887 15.3547 13.8885 15.3522 13.8885 15.3498C13.8874 15.3096 13.8856 15.2695 13.8856 15.2293V13.1366C14.0665 13.0672 14.2568 12.9784 14.4566 12.8663C16.3632 11.7964 18.3327 11.6979 18.4998 11.6914C18.6706 11.698 20.6382 11.7973 22.5432 12.8663C22.743 12.9784 22.9333 13.0674 23.1142 13.1368V15.2293C23.1142 15.2701 23.1122 15.3103 23.1111 15.3508C23.1111 15.3527 23.1111 15.3545 23.111 15.3564C23.0685 16.8933 22.2593 18.2412 21.0523 19.0309C21.0491 19.033 21.0458 19.035 21.0425 19.0372C20.3312 19.5 19.4834 19.7703 18.5732 19.7703C15.6949 19.7703 13.9541 17.5487 13.8887 15.3572ZM14.7934 22.4101L15.3454 22.1962L15.3604 22.1906L17.8711 24.7767L16.6596 25.9734C16.6175 26.0151 16.5486 26.0097 16.5136 25.9619L14.7934 23.6213V22.4101ZM12.3339 23.3636L13.7387 22.819V29.7148H12.3339V23.3636ZM12.3127 30.7695H13.7598C14.3297 30.7695 14.7934 30.3059 14.7934 29.736V29.3455H17.2694C17.5607 29.3455 17.7968 29.1094 17.7968 28.8181C17.7968 28.5269 17.5607 28.2908 17.2694 28.2908H14.7934V25.4024L15.6636 26.5865C16.079 27.1517 16.9006 27.218 17.4008 26.7237L18.5 25.638L19.599 26.7237C20.0988 27.2178 20.9206 27.1519 21.3361 26.5865L22.1447 25.4862V28.2907H19.7304C19.4391 28.2907 19.203 28.5268 19.203 28.8181C19.203 29.1093 19.4391 29.3454 19.7304 29.3454H22.1447V29.7359C22.1447 30.3058 22.6083 30.7695 23.1782 30.7695H24.6253C25.1951 30.7695 25.6588 30.3058 25.6588 29.7359V29.5021C25.86 29.6494 25.9914 29.8867 25.9914 30.1546V34.9452H11.0084V30.1546C11.0084 29.9162 11.1135 29.7016 11.2792 29.5532V29.7359C11.2792 30.3059 11.7428 30.7695 12.3127 30.7695ZM5.89631 28.7318C5.89631 26.6704 7.35853 25.3184 8.34438 24.9102L11.2792 23.7724V28.3714C10.5139 28.6038 9.95362 29.3171 9.95362 30.1546V34.9452H6.29519C6.07526 34.9452 5.89631 34.7662 5.89631 34.5463V28.7318Z" fill="#222B45"/>
</svg>
