<svg xmlns="http://www.w3.org/2000/svg" xmlns:xlink="http://www.w3.org/1999/xlink" width="50" zoomAndPan="magnify" viewBox="0 0 37.5 37.499999" height="50" preserveAspectRatio="xMidYMid meet" version="1.2"><g id="13093fbee2"><path style=" stroke:none;fill-rule:nonzero;fill:#686868;fill-opacity:1;" d="M 29.238281 11.707031 L 21.601562 6.363281 C 19.519531 4.90625 16.324219 4.984375 14.320312 6.535156 L 7.675781 11.722656 C 6.351562 12.757812 5.304688 14.878906 5.304688 16.546875 L 5.304688 25.699219 C 5.304688 29.078125 8.046875 31.839844 11.429688 31.839844 L 25.726562 31.839844 C 29.105469 31.839844 31.851562 29.09375 31.851562 25.710938 L 31.851562 16.722656 C 31.851562 14.929688 30.699219 12.730469 29.238281 11.707031 Z M 19.570312 26.535156 C 19.570312 27.078125 19.121094 27.527344 18.578125 27.527344 C 18.035156 27.527344 17.582031 27.078125 17.582031 26.535156 L 17.582031 22.554688 C 17.582031 22.011719 18.035156 21.5625 18.578125 21.5625 C 19.121094 21.5625 19.570312 22.011719 19.570312 22.554688 Z M 19.570312 26.535156 "/></g></svg>