<svg width="125" height="24" viewBox="0 0 125 24" fill="none" xmlns="http://www.w3.org/2000/svg">
<path fill-rule="evenodd" clip-rule="evenodd" d="M10.7674 0.0680419C9.97845 0.216779 9.2909 0.601281 8.68638 1.23186C8.06163 1.88355 7.71109 2.58175 7.56212 3.47098C7.20749 5.58766 8.48418 7.63364 10.5184 8.20879C11.0397 8.35617 11.9841 8.35486 12.509 8.20603C15.1005 7.47116 16.2843 4.41268 14.9125 1.99651C14.6611 1.55372 14.0051 0.8694 13.5806 0.607142C12.7156 0.0727779 11.7369 -0.114784 10.7674 0.0680419ZM12.4215 0.839953C13.5482 1.20593 14.345 2.04208 14.6981 3.22898C14.8482 3.73338 14.8482 4.6002 14.6981 5.1046C14.3453 6.29022 13.5357 7.13477 12.399 7.50276C11.9155 7.65933 11.0845 7.65933 10.601 7.50276C9.46433 7.13477 8.65469 6.29022 8.3019 5.1046C8.1518 4.6001 8.1518 3.73333 8.30195 3.22898C8.69425 1.91112 9.68131 0.984141 10.9499 0.742093C11.3045 0.67443 12.0684 0.725259 12.4215 0.839953ZM12.1903 4.01439C11.5834 4.62692 11.0698 5.12804 11.0488 5.12804C11.0278 5.12804 10.8467 4.97504 10.6462 4.78809C10.2741 4.441 10.1575 4.39125 9.96649 4.49788C9.83631 4.57056 9.7763 4.76684 9.83923 4.91394C9.86755 4.9801 10.1212 5.25052 10.4029 5.51489C11.0816 6.15166 11.0391 6.15316 11.7187 5.46922C13.9803 3.19329 13.9009 3.29144 13.6994 3.0243C13.6307 2.93314 13.5653 2.90074 13.45 2.90074C13.307 2.90074 13.2002 2.99518 12.1903 4.01439ZM1.39594 3.8394C0.858266 3.92117 0.328951 4.36307 0.118978 4.90545L0.014643 5.17493L0.00223615 12.0415C-0.00531586 16.2375 0.00659654 19.0342 0.0328937 19.2323C0.11201 19.8276 0.418091 20.2752 0.943361 20.5638L1.18341 20.6957L4.20646 20.7087L7.22952 20.7217V21.4164V22.1112L6.80161 22.7047L6.37375 23.2981H6.13101C5.81634 23.2981 5.74829 23.3288 5.6783 23.5024C5.61334 23.6636 5.65443 23.8368 5.78155 23.9376C5.84368 23.9868 6.94946 23.9988 11.5367 24C15.0886 24.0009 17.2451 23.9846 17.2957 23.9564C17.3401 23.9316 17.401 23.8493 17.4311 23.7736C17.4761 23.6604 17.4735 23.6112 17.4165 23.4962C17.3307 23.3231 17.2702 23.2981 16.9364 23.2981H16.6712L16.2433 22.7047L15.8154 22.1112V21.4164V20.7217L18.816 20.7087L21.8166 20.6957L22.0638 20.5636C22.5708 20.2929 22.8884 19.8248 22.9671 19.2323C22.9934 19.0342 23.0053 16.2375 22.9978 12.0415L22.9854 5.17493L22.8769 4.89359C22.7276 4.50618 22.3196 4.08173 21.9515 3.93074C21.6958 3.82594 21.6263 3.82003 20.619 3.81764C19.6351 3.8153 19.5492 3.82172 19.4614 3.90443C19.3977 3.96455 19.3667 4.05031 19.3667 4.16679C19.3667 4.47617 19.3965 4.48461 20.5579 4.50369C21.5087 4.51931 21.6063 4.52873 21.7716 4.6205C21.9796 4.73599 22.1089 4.87338 22.2271 5.1046C22.3077 5.26215 22.3116 5.52262 22.3233 11.6107L22.3354 17.9526H13.2128C8.19536 17.9526 4.05744 17.9657 4.01744 17.9817C3.9091 18.0251 3.80692 18.2623 3.83906 18.3957C3.89944 18.6466 3.33321 18.6308 13.1589 18.6559L22.3111 18.6794L22.2981 19.0055C22.2822 19.4069 22.1656 19.6488 21.8914 19.8496L21.6965 19.9923H11.5H1.30352L1.10861 19.8496C0.834396 19.6488 0.717835 19.4069 0.701876 19.0055L0.68893 18.6794L1.76577 18.6668C2.79815 18.6547 2.84687 18.65 2.94577 18.5531C3.09195 18.4099 3.0849 18.1764 2.93049 18.0498C2.81819 17.9576 2.75652 17.9526 1.7383 17.9526H0.664566L0.676748 11.6107L0.68893 5.26871L0.785713 5.08115C0.897824 4.86381 1.0298 4.729 1.25084 4.60601C1.39783 4.52423 1.58182 4.51692 4.04724 4.49502C6.62009 4.47218 6.68797 4.46923 6.75419 4.37779C6.89498 4.18334 6.81478 3.93257 6.58233 3.84038C6.43844 3.78332 1.77053 3.78243 1.39594 3.8394ZM16.4039 3.84104C16.1709 3.94195 16.1041 4.21035 16.2667 4.39238C16.3558 4.49216 16.3868 4.49502 17.3836 4.49502C18.3197 4.49502 18.4152 4.48756 18.4831 4.40926C18.5899 4.28626 18.579 4.01402 18.463 3.90443C18.3773 3.82345 18.2818 3.81412 17.4403 3.8046C16.8987 3.79851 16.4671 3.81365 16.4039 3.84104ZM5.02684 9.84841C4.7948 9.91767 4.59908 10.0923 4.48998 10.3274C4.39724 10.5272 4.39391 10.5867 4.40668 11.8252L4.41999 13.115L4.55484 13.314C4.62901 13.4235 4.77061 13.5572 4.86951 13.611C5.04577 13.7071 5.10722 13.7092 7.97523 13.7217C10.8857 13.7343 10.9017 13.7339 11.0208 13.6362C11.1704 13.5135 11.1848 13.263 11.0505 13.1229C10.9625 13.0311 10.9006 13.0291 8.0868 13.0291C5.53427 13.0291 5.20517 13.0208 5.14242 12.9554C5.03664 12.845 5.03664 10.681 5.14242 10.5707C5.2058 10.5046 5.71336 10.497 10.0569 10.497H14.9007L14.9985 10.3885C15.1191 10.2545 15.1237 10.074 15.0103 9.9278L14.9243 9.81709L10.0542 9.80926C6.91498 9.80424 5.12826 9.81817 5.02684 9.84841ZM16.0566 9.84668C15.9606 9.89694 15.8604 10.0714 15.8604 10.1881C15.8604 10.2221 15.9023 10.3055 15.9536 10.3734L16.0467 10.497H16.9168C17.6479 10.497 17.7982 10.5088 17.8576 10.5707C17.9634 10.681 17.9634 12.845 17.8576 12.9554C17.7991 13.0164 17.6603 13.0291 17.0534 13.0291C16.248 13.0291 16.1654 13.0545 16.105 13.321C16.0816 13.4238 16.1031 13.4771 16.2148 13.5936L16.3537 13.7384L17.1521 13.7237C18.0712 13.7068 18.2086 13.6632 18.4452 13.3139L18.58 13.1148V11.763V10.4113L18.4452 10.2121C18.2021 9.85329 18.083 9.81864 17.0516 9.80673C16.4812 9.80016 16.1175 9.81475 16.0566 9.84668ZM12.074 12.5117C12.0122 12.5624 11.9385 12.6626 11.9102 12.7344C11.8819 12.8062 11.8209 13.5296 11.7747 14.342C11.6808 15.9906 11.6858 16.041 11.9581 16.2192C12.1803 16.3646 12.4179 16.3225 12.7513 16.0786C12.9004 15.9695 13.0421 15.8927 13.066 15.9081C13.0899 15.9235 13.2513 16.1535 13.4247 16.4192C13.7567 16.9279 13.8619 17.0148 14.1463 17.0148C14.2849 17.0148 14.4075 16.9484 14.8145 16.6529C15.0887 16.4539 15.3476 16.2302 15.3897 16.1557C15.5211 15.9238 15.4578 15.7173 15.0821 15.1517L14.744 14.6428L15.0596 14.4163C15.435 14.1468 15.5391 13.9571 15.461 13.685C15.4342 13.592 15.3626 13.4671 15.3018 13.4075C15.1616 13.2701 12.6432 12.4218 12.3714 12.4205C12.2544 12.4198 12.1451 12.4534 12.074 12.5117ZM13.669 13.5352C14.182 13.7053 14.6017 13.8564 14.6017 13.8709C14.6017 13.8855 14.4679 13.992 14.3042 14.1078C13.9988 14.3238 13.903 14.4692 13.9545 14.6386C13.9707 14.6917 14.1432 14.9749 14.3378 15.2679C14.5324 15.561 14.6916 15.8199 14.6916 15.8433C14.6916 15.8668 14.5675 15.9739 14.4158 16.0813C14.1997 16.2344 14.1321 16.2628 14.1042 16.212C13.9409 15.9152 13.3672 15.107 13.2868 15.0604C13.1351 14.9725 13.1126 14.9796 12.7419 15.232C12.424 15.4485 12.399 15.4579 12.3986 15.361C12.3977 15.1294 12.4963 13.3734 12.5159 13.2726C12.5327 13.1861 12.5568 13.1706 12.6365 13.1952C12.6913 13.2121 13.1559 13.3651 13.669 13.5352ZM15.1412 21.5317V22.3443L15.4753 22.8095L15.8095 23.2747L13.6806 23.2869C12.5098 23.2935 10.5806 23.2935 9.39362 23.2869L7.2354 23.2747L7.56963 22.8095L7.9038 22.3443V21.5317V20.7191H11.5225H15.1412V21.5317Z" fill="url(#paint0_linear_10_1141)"/>
<path d="M39.4604 9.70471C40.5758 9.90873 41.476 10.3089 42.1611 10.9053C42.8622 11.486 43.2127 12.3806 43.2127 13.589C43.2127 15.2997 42.5913 16.516 41.3485 17.238C40.1057 17.9599 38.377 18.3209 36.1623 18.3209H31V2.03019H35.517C37.7795 2.03019 39.5082 2.35977 40.7032 3.01894C41.8982 3.6781 42.4957 4.73746 42.4957 6.19703C42.4957 7.15438 42.2009 7.93125 41.6114 8.52763C41.0378 9.10832 40.3208 9.50068 39.4604 9.70471ZM34.5132 4.52559V8.64534H36.234C37.0944 8.64534 37.7556 8.47271 38.2177 8.12743C38.6797 7.76646 38.9108 7.22501 38.9108 6.50307C38.9108 5.78113 38.6638 5.27107 38.1699 4.97288C37.6759 4.67468 36.9032 4.52559 35.8516 4.52559H34.5132ZM36.1862 15.7549C37.2856 15.7549 38.1221 15.5979 38.6957 15.284C39.2693 14.9545 39.556 14.3424 39.556 13.4478C39.556 11.8156 38.5363 10.9995 36.4969 10.9995H34.5132V15.7549H36.1862Z" fill="url(#paint1_linear_10_1141)"/>
<path d="M50.9617 5.46725C52.8578 5.46725 54.3395 6.05578 55.4071 7.23285C56.4746 8.39423 57.0083 10.0107 57.0083 12.0824C57.0083 13.4007 56.7614 14.5621 56.2674 15.5665C55.7895 16.5553 55.0884 17.3243 54.1643 17.8736C53.2561 18.4229 52.1806 18.6975 50.9378 18.6975C49.0418 18.6975 47.5521 18.1169 46.4686 16.9555C45.4011 15.7784 44.8674 14.154 44.8674 12.0824C44.8674 10.7641 45.1063 9.61054 45.5843 8.6218C46.0783 7.61737 46.7793 6.8405 47.6875 6.2912C48.6116 5.7419 49.703 5.46725 50.9617 5.46725ZM50.9617 7.96264C50.1014 7.96264 49.4561 8.30007 49.0259 8.97492C48.6116 9.63408 48.4045 10.6699 48.4045 12.0824C48.4045 13.4949 48.6116 14.5386 49.0259 15.2134C49.4561 15.8726 50.0934 16.2021 50.9378 16.2021C51.7823 16.2021 52.4116 15.8726 52.8259 15.2134C53.2561 14.5386 53.4712 13.4949 53.4712 12.0824C53.4712 10.6699 53.2641 9.63408 52.8498 8.97492C52.4355 8.30007 51.8062 7.96264 50.9617 7.96264Z" fill="url(#paint2_linear_10_1141)"/>
<path d="M64.9187 5.46725C66.8148 5.46725 68.2965 6.05578 69.364 7.23285C70.4316 8.39423 70.9653 10.0107 70.9653 12.0824C70.9653 13.4007 70.7183 14.5621 70.2244 15.5665C69.7464 16.5553 69.0454 17.3243 68.1213 17.8736C67.2131 18.4229 66.1376 18.6975 64.8948 18.6975C62.9988 18.6975 61.509 18.1169 60.4256 16.9555C59.3581 15.7784 58.8243 14.154 58.8243 12.0824C58.8243 10.7641 59.0633 9.61054 59.5413 8.6218C60.0352 7.61737 60.7363 6.8405 61.6445 6.2912C62.5686 5.7419 63.66 5.46725 64.9187 5.46725ZM64.9187 7.96264C64.0583 7.96264 63.413 8.30007 62.9829 8.97492C62.5686 9.63408 62.3615 10.6699 62.3615 12.0824C62.3615 13.4949 62.5686 14.5386 62.9829 15.2134C63.413 15.8726 64.0504 16.2021 64.8948 16.2021C65.7393 16.2021 66.3686 15.8726 66.7829 15.2134C67.2131 14.5386 67.4282 13.4949 67.4282 12.0824C67.4282 10.6699 67.221 9.63408 66.8068 8.97492C66.3925 8.30007 65.7632 7.96264 64.9187 7.96264Z" fill="url(#paint3_linear_10_1141)"/>
<path d="M76.9398 0.5V18.3209H73.5461V0.876663L76.9398 0.5ZM84.6355 5.84391L80.5965 11.3291L84.994 18.3209H81.1462L77.0593 11.4939L81.1223 5.84391H84.6355Z" fill="url(#paint4_linear_10_1141)"/>
<path d="M95.8287 14.8603C95.8287 15.3468 95.9004 15.7078 96.0438 15.9432C96.1872 16.1629 96.4262 16.3277 96.7608 16.4376L96.0438 18.6505C95.2949 18.5877 94.6815 18.415 94.2035 18.1325C93.7415 17.8501 93.383 17.4106 93.1281 16.8142C92.2995 18.0698 91.0329 18.6975 89.328 18.6975C88.0693 18.6975 87.0655 18.3444 86.3167 17.6382C85.5838 16.9162 85.2173 15.9824 85.2173 14.8367C85.2173 13.4713 85.7192 12.4277 86.723 11.7057C87.7267 10.9838 89.1687 10.6228 91.0488 10.6228H92.5067V10.0107C92.5067 9.24173 92.3314 8.70812 91.9809 8.40993C91.6303 8.11173 91.0488 7.96264 90.2362 7.96264C89.344 7.96264 88.2286 8.18236 86.8903 8.6218L86.1255 6.38536C87.7028 5.77329 89.2643 5.46725 90.8098 5.46725C92.5306 5.46725 93.7972 5.83606 94.6098 6.5737C95.4224 7.29563 95.8287 8.37854 95.8287 9.82241V14.8603ZM90.2601 16.2963C91.2161 16.2963 91.9649 15.8333 92.5067 14.9074V12.5297H91.3834C89.5511 12.5297 88.6349 13.2045 88.6349 14.5542C88.6349 15.1035 88.7704 15.5351 89.0412 15.849C89.328 16.1472 89.7343 16.2963 90.2601 16.2963Z" fill="url(#paint5_linear_10_1141)"/>
<path d="M106.055 5.46725C107.648 5.46725 108.827 6.04794 109.592 7.20931C110.373 8.355 110.763 9.97151 110.763 12.0589C110.763 13.3301 110.564 14.4679 110.165 15.4724C109.767 16.4768 109.186 17.2694 108.421 17.8501C107.672 18.415 106.78 18.6975 105.744 18.6975C104.453 18.6975 103.41 18.2503 102.613 17.3557V23.1233L99.2195 23.5V5.84391H102.207L102.374 7.30348C102.852 6.6914 103.41 6.23627 104.047 5.93808C104.7 5.62419 105.37 5.46725 106.055 5.46725ZM104.74 16.2021C106.397 16.2021 107.226 14.8289 107.226 12.0824C107.226 10.5757 107.043 9.50853 106.676 8.88076C106.31 8.25299 105.752 7.9391 105.003 7.9391C104.525 7.9391 104.079 8.0882 103.665 8.38639C103.266 8.66888 102.916 9.05339 102.613 9.53992V14.978C103.155 15.7941 103.864 16.2021 104.74 16.2021Z" fill="url(#paint6_linear_10_1141)"/>
<path d="M120.292 5.46725C121.885 5.46725 123.064 6.04794 123.829 7.20931C124.61 8.355 125 9.97151 125 12.0589C125 13.3301 124.801 14.4679 124.403 15.4724C124.004 16.4768 123.423 17.2694 122.658 17.8501C121.909 18.415 121.017 18.6975 119.981 18.6975C118.691 18.6975 117.647 18.2503 116.85 17.3557V23.1233L113.457 23.5V5.84391H116.444L116.611 7.30348C117.089 6.6914 117.647 6.23627 118.284 5.93808C118.937 5.62419 119.607 5.46725 120.292 5.46725ZM118.977 16.2021C120.634 16.2021 121.463 14.8289 121.463 12.0824C121.463 10.5757 121.28 9.50853 120.913 8.88076C120.547 8.25299 119.989 7.9391 119.24 7.9391C118.762 7.9391 118.316 8.0882 117.902 8.38639C117.503 8.66888 117.153 9.05339 116.85 9.53992V14.978C117.392 15.7941 118.101 16.2021 118.977 16.2021Z" fill="url(#paint7_linear_10_1141)"/>
<defs>
<linearGradient id="paint0_linear_10_1141" x1="0" y1="0" x2="25.2005" y2="2.1391" gradientUnits="userSpaceOnUse">
<stop stop-color="#FF0037"/>
<stop offset="1" stop-color="#FF4870"/>
</linearGradient>
<linearGradient id="paint1_linear_10_1141" x1="31" y1="0.5" x2="122.717" y2="33.7012" gradientUnits="userSpaceOnUse">
<stop stop-color="#FF0037"/>
<stop offset="1" stop-color="#FF4870"/>
</linearGradient>
<linearGradient id="paint2_linear_10_1141" x1="31" y1="0.5" x2="122.717" y2="33.7012" gradientUnits="userSpaceOnUse">
<stop stop-color="#FF0037"/>
<stop offset="1" stop-color="#FF4870"/>
</linearGradient>
<linearGradient id="paint3_linear_10_1141" x1="31" y1="0.5" x2="122.717" y2="33.7012" gradientUnits="userSpaceOnUse">
<stop stop-color="#FF0037"/>
<stop offset="1" stop-color="#FF4870"/>
</linearGradient>
<linearGradient id="paint4_linear_10_1141" x1="31" y1="0.5" x2="122.717" y2="33.7012" gradientUnits="userSpaceOnUse">
<stop stop-color="#FF0037"/>
<stop offset="1" stop-color="#FF4870"/>
</linearGradient>
<linearGradient id="paint5_linear_10_1141" x1="31" y1="0.5" x2="122.717" y2="33.7012" gradientUnits="userSpaceOnUse">
<stop stop-color="#FF0037"/>
<stop offset="1" stop-color="#FF4870"/>
</linearGradient>
<linearGradient id="paint6_linear_10_1141" x1="31" y1="0.5" x2="122.717" y2="33.7012" gradientUnits="userSpaceOnUse">
<stop stop-color="#FF0037"/>
<stop offset="1" stop-color="#FF4870"/>
</linearGradient>
<linearGradient id="paint7_linear_10_1141" x1="31" y1="0.5" x2="122.717" y2="33.7012" gradientUnits="userSpaceOnUse">
<stop stop-color="#FF0037"/>
<stop offset="1" stop-color="#FF4870"/>
</linearGradient>
</defs>
</svg>
