<svg width="14" height="14" viewBox="0 0 14 14" fill="none" xmlns="http://www.w3.org/2000/svg">
<g clip-path="url(#clip0_10_1376)">
<path d="M6.99996 3.5C6.53847 3.5 6.08735 3.63685 5.70363 3.89324C5.31992 4.14963 5.02085 4.51404 4.84424 4.94041C4.66764 5.36677 4.62143 5.83592 4.71146 6.28854C4.80149 6.74117 5.02372 7.15693 5.35004 7.48325C5.67637 7.80957 6.09213 8.0318 6.54475 8.12183C6.99737 8.21186 7.46653 8.16566 7.89289 7.98905C8.31925 7.81245 8.68367 7.51338 8.94006 7.12966C9.19645 6.74595 9.33329 6.29482 9.33329 5.83333C9.33329 5.21449 9.08746 4.621 8.64988 4.18342C8.21229 3.74583 7.6188 3.5 6.99996 3.5ZM6.99996 7C6.76922 7 6.54365 6.93158 6.3518 6.80338C6.15994 6.67519 6.0104 6.49298 5.9221 6.2798C5.8338 6.06662 5.81069 5.83204 5.85571 5.60573C5.90073 5.37942 6.01184 5.17154 6.175 5.00838C6.33816 4.84521 6.54604 4.7341 6.77236 4.68908C6.99867 4.64407 7.23324 4.66717 7.44642 4.75547C7.65961 4.84378 7.84181 4.99331 7.97001 5.18517C8.0982 5.37703 8.16663 5.60259 8.16663 5.83333C8.16663 6.14275 8.04371 6.4395 7.82492 6.65829C7.60613 6.87708 7.30938 7 6.99996 7Z" fill="#686868"/>
<path d="M7.00006 14C6.50886 14.0025 6.02421 13.8873 5.58668 13.664C5.14916 13.4408 4.77149 13.1159 4.48531 12.7167C2.26223 9.65009 1.13464 7.34476 1.13464 5.86426C1.13464 4.30865 1.75261 2.81676 2.85258 1.71678C3.95256 0.616802 5.44446 -0.00115967 7.00006 -0.00115967C8.55567 -0.00115967 10.0476 0.616802 11.1475 1.71678C12.2475 2.81676 12.8655 4.30865 12.8655 5.86426C12.8655 7.34476 11.7379 9.65009 9.51481 12.7167C9.22863 13.1159 8.85097 13.4408 8.41344 13.664C7.97591 13.8873 7.49126 14.0025 7.00006 14ZM7.00006 1.27226C5.7823 1.27365 4.61482 1.75801 3.75374 2.6191C2.89265 3.48018 2.40828 4.64767 2.40689 5.86542C2.40689 7.03792 3.51114 9.20617 5.51548 11.9706C5.68563 12.205 5.90886 12.3957 6.16689 12.5272C6.42493 12.6588 6.71044 12.7273 7.00006 12.7273C7.28968 12.7273 7.57519 12.6588 7.83323 12.5272C8.09126 12.3957 8.31449 12.205 8.48464 11.9706C10.489 9.20617 11.5932 7.03792 11.5932 5.86542C11.5918 4.64767 11.1075 3.48018 10.2464 2.6191C9.3853 1.75801 8.21782 1.27365 7.00006 1.27226Z" fill="#686868"/>
</g>
<defs>
<clipPath id="clip0_10_1376">
<rect width="14" height="14" fill="white"/>
</clipPath>
</defs>
</svg>
