<svg width="22" height="22" viewBox="0 0 22 22" fill="none" xmlns="http://www.w3.org/2000/svg">
<g clip-path="url(#clip0_10_1146)">
<path d="M18.3334 7.33333C20.3556 7.33333 22.0001 5.68883 22.0001 3.66667C22.0001 1.6445 20.3556 0 18.3334 0C16.3112 0 14.6667 1.6445 14.6667 3.66667C14.6667 5.68883 16.3112 7.33333 18.3334 7.33333ZM18.3334 1.83333C19.3445 1.83333 20.1667 2.65558 20.1667 3.66667C20.1667 4.67775 19.3445 5.5 18.3334 5.5C17.3223 5.5 16.5001 4.67775 16.5001 3.66667C16.5001 2.65558 17.3223 1.83333 18.3334 1.83333ZM20.0457 9.44258C19.9293 8.94942 19.427 8.646 18.9439 8.75967C18.4507 8.87608 18.1455 9.36925 18.261 9.8615L19.2299 13.9764C19.3986 14.5796 19.2766 15.2121 18.8953 15.7117C18.5112 16.2131 17.9273 16.5 17.293 16.5H4.70714C4.09297 16.5 3.52097 16.2277 3.13781 15.7529C2.75556 15.279 2.61256 14.6685 2.73539 14.1157L4.65489 6.98683C5.33322 3.95267 7.99339 1.83425 11.1229 1.83425C11.5171 1.83425 11.9103 1.86908 12.2916 1.93875C12.7967 2.02858 13.267 1.69675 13.3577 1.19992C13.4485 0.70125 13.1166 0.224583 12.6189 0.133833C12.1294 0.0449167 11.6261 0 11.122 0C7.12806 0 3.73272 2.70875 2.87472 6.54867L0.955223 13.6767C0.700389 14.817 0.975389 15.9931 1.71056 16.9042C2.44297 17.8127 3.53564 18.3342 4.70714 18.3342H6.50931C6.93556 20.4233 8.78631 22.0009 11.0001 22.0009C13.2138 22.0009 15.0646 20.4233 15.4908 18.3342H17.2921C18.5021 18.3342 19.6176 17.7842 20.351 16.8254C21.0852 15.8647 21.3199 14.6465 21.0046 13.5208L20.0457 9.4435V9.44258ZM11.0001 20.1667C9.80656 20.1667 8.79822 19.3976 8.41872 18.3333H13.5805C13.201 19.3976 12.1926 20.1667 10.9991 20.1667H11.0001Z" fill="#686868"/>
</g>
<defs>
<clipPath id="clip0_10_1146">
<rect width="22" height="22" fill="white"/>
</clipPath>
</defs>
</svg>
