<svg xmlns="http://www.w3.org/2000/svg" xmlns:xlink="http://www.w3.org/1999/xlink" width="50" zoomAndPan="magnify" viewBox="0 0 37.5 37.499999" height="50" preserveAspectRatio="xMidYMid meet" version="1.2"><defs><clipPath id="8367701bd4"><path d="M 3.699219 3.699219 L 33.304688 3.699219 L 33.304688 33.304688 L 3.699219 33.304688 Z M 3.699219 3.699219 "/></clipPath></defs><g id="c7f7062649"><g clip-rule="nonzero" clip-path="url(#8367701bd4)"><path style=" stroke:none;fill-rule:nonzero;fill:#686868;fill-opacity:1;" d="M 27.136719 6.167969 L 25.90625 6.167969 L 25.90625 4.933594 C 25.90625 4.605469 25.773438 4.292969 25.542969 4.0625 C 25.3125 3.832031 25 3.699219 24.671875 3.699219 C 24.34375 3.699219 24.03125 3.832031 23.796875 4.0625 C 23.566406 4.292969 23.4375 4.605469 23.4375 4.933594 L 23.4375 6.167969 L 13.570312 6.167969 L 13.570312 4.933594 C 13.570312 4.605469 13.4375 4.292969 13.207031 4.0625 C 12.976562 3.832031 12.664062 3.699219 12.335938 3.699219 C 12.007812 3.699219 11.695312 3.832031 11.464844 4.0625 C 11.230469 4.292969 11.101562 4.605469 11.101562 4.933594 L 11.101562 6.167969 L 9.867188 6.167969 C 8.234375 6.167969 6.664062 6.820312 5.507812 7.976562 C 4.351562 9.132812 3.703125 10.699219 3.699219 12.335938 L 3.699219 27.136719 C 3.703125 28.773438 4.351562 30.339844 5.507812 31.496094 C 6.664062 32.652344 8.234375 33.304688 9.867188 33.304688 L 27.136719 33.304688 C 28.773438 33.304688 30.339844 32.652344 31.496094 31.496094 C 32.652344 30.339844 33.304688 28.773438 33.304688 27.136719 L 33.304688 12.335938 C 33.304688 10.699219 32.652344 9.132812 31.496094 7.976562 C 30.339844 6.820312 28.773438 6.167969 27.136719 6.167969 Z M 6.167969 12.335938 C 6.167969 11.355469 6.558594 10.414062 7.25 9.71875 C 7.945312 9.023438 8.886719 8.636719 9.867188 8.636719 L 27.136719 8.636719 C 28.121094 8.636719 29.0625 9.023438 29.753906 9.71875 C 30.449219 10.414062 30.839844 11.355469 30.839844 12.335938 L 30.839844 13.570312 L 6.167969 13.570312 Z M 27.136719 30.839844 L 9.867188 30.839844 C 8.886719 30.839844 7.945312 30.449219 7.25 29.753906 C 6.558594 29.0625 6.167969 28.121094 6.167969 27.136719 L 6.167969 16.035156 L 30.839844 16.035156 L 30.839844 27.136719 C 30.839844 28.121094 30.449219 29.0625 29.753906 29.753906 C 29.0625 30.449219 28.121094 30.839844 27.136719 30.839844 Z M 27.136719 30.839844 "/></g><path style=" stroke:none;fill-rule:nonzero;fill:#686868;fill-opacity:1;" d="M 18.503906 24.054688 C 19.523438 24.054688 20.355469 23.226562 20.355469 22.203125 C 20.355469 21.183594 19.523438 20.355469 18.503906 20.355469 C 17.480469 20.355469 16.652344 21.183594 16.652344 22.203125 C 16.652344 23.226562 17.480469 24.054688 18.503906 24.054688 Z M 18.503906 24.054688 "/><path style=" stroke:none;fill-rule:nonzero;fill:#686868;fill-opacity:1;" d="M 12.335938 24.054688 C 13.359375 24.054688 14.1875 23.226562 14.1875 22.203125 C 14.1875 21.183594 13.359375 20.355469 12.335938 20.355469 C 11.3125 20.355469 10.484375 21.183594 10.484375 22.203125 C 10.484375 23.226562 11.3125 24.054688 12.335938 24.054688 Z M 12.335938 24.054688 "/><path style=" stroke:none;fill-rule:nonzero;fill:#686868;fill-opacity:1;" d="M 24.671875 24.054688 C 25.691406 24.054688 26.519531 23.226562 26.519531 22.203125 C 26.519531 21.183594 25.691406 20.355469 24.671875 20.355469 C 23.648438 20.355469 22.820312 21.183594 22.820312 22.203125 C 22.820312 23.226562 23.648438 24.054688 24.671875 24.054688 Z M 24.671875 24.054688 "/></g></svg>