<svg xmlns="http://www.w3.org/2000/svg" xmlns:xlink="http://www.w3.org/1999/xlink" width="50" zoomAndPan="magnify" viewBox="0 0 37.5 37.499999" height="50" preserveAspectRatio="xMidYMid meet" version="1.2"><defs><clipPath id="5d3781b2b7"><path d="M 5 3.699219 L 32 3.699219 L 32 33.304688 L 5 33.304688 Z M 5 3.699219 "/></clipPath></defs><g id="d33ddc962f"><path style=" stroke:none;fill-rule:nonzero;fill:#686868;fill-opacity:1;" d="M 18.503906 13.570312 C 17.527344 13.570312 16.574219 13.859375 15.761719 14.402344 C 14.949219 14.941406 14.316406 15.714844 13.945312 16.613281 C 13.570312 17.515625 13.472656 18.507812 13.664062 19.464844 C 13.855469 20.421875 14.324219 21.300781 15.015625 21.992188 C 15.703125 22.683594 16.582031 23.152344 17.539062 23.34375 C 18.496094 23.53125 19.488281 23.433594 20.390625 23.0625 C 21.292969 22.6875 22.0625 22.054688 22.605469 21.246094 C 23.148438 20.433594 23.4375 19.480469 23.4375 18.503906 C 23.4375 17.195312 22.917969 15.941406 21.992188 15.015625 C 21.066406 14.089844 19.8125 13.570312 18.503906 13.570312 Z M 18.503906 20.96875 C 18.015625 20.96875 17.539062 20.824219 17.132812 20.554688 C 16.726562 20.285156 16.410156 19.898438 16.222656 19.449219 C 16.039062 18.996094 15.988281 18.5 16.082031 18.023438 C 16.179688 17.542969 16.414062 17.105469 16.757812 16.757812 C 17.105469 16.414062 17.542969 16.179688 18.023438 16.082031 C 18.5 15.988281 18.996094 16.039062 19.449219 16.222656 C 19.898438 16.410156 20.285156 16.726562 20.554688 17.132812 C 20.824219 17.539062 20.96875 18.015625 20.96875 18.503906 C 20.96875 19.15625 20.710938 19.785156 20.246094 20.246094 C 19.785156 20.710938 19.15625 20.96875 18.503906 20.96875 Z M 18.503906 20.96875 "/><g clip-rule="nonzero" clip-path="url(#5d3781b2b7)"><path style=" stroke:none;fill-rule:nonzero;fill:#686868;fill-opacity:1;" d="M 29.96875 20.847656 L 29.421875 20.53125 C 29.667969 19.191406 29.667969 17.816406 29.421875 16.472656 L 29.96875 16.15625 C 30.390625 15.914062 30.757812 15.589844 31.054688 15.203125 C 31.351562 14.820312 31.566406 14.378906 31.695312 13.910156 C 31.820312 13.441406 31.851562 12.949219 31.789062 12.46875 C 31.726562 11.984375 31.566406 11.519531 31.324219 11.097656 C 31.082031 10.679688 30.757812 10.308594 30.371094 10.011719 C 29.988281 9.71875 29.546875 9.5 29.078125 9.375 C 28.609375 9.246094 28.117188 9.214844 27.636719 9.277344 C 27.152344 9.34375 26.6875 9.5 26.265625 9.742188 L 25.71875 10.058594 C 24.683594 9.175781 23.488281 8.488281 22.203125 8.035156 L 22.203125 7.402344 C 22.203125 6.417969 21.8125 5.480469 21.121094 4.785156 C 20.425781 4.089844 19.484375 3.699219 18.503906 3.699219 C 17.523438 3.699219 16.582031 4.089844 15.886719 4.785156 C 15.191406 5.480469 14.800781 6.417969 14.800781 7.402344 L 14.800781 8.035156 C 13.515625 8.488281 12.324219 9.175781 11.289062 10.066406 L 10.738281 9.746094 C 9.886719 9.253906 8.875 9.121094 7.929688 9.375 C 6.980469 9.628906 6.171875 10.25 5.679688 11.101562 C 5.191406 11.953125 5.058594 12.964844 5.3125 13.910156 C 5.566406 14.859375 6.1875 15.667969 7.039062 16.160156 L 7.585938 16.476562 C 7.339844 17.816406 7.339844 19.191406 7.585938 20.535156 L 7.039062 20.847656 C 6.1875 21.339844 5.566406 22.148438 5.3125 23.097656 C 5.058594 24.046875 5.191406 25.054688 5.679688 25.90625 C 6.171875 26.757812 6.980469 27.378906 7.929688 27.632812 C 8.875 27.886719 9.886719 27.753906 10.738281 27.265625 L 11.285156 26.945312 C 12.324219 27.832031 13.515625 28.519531 14.800781 28.972656 L 14.800781 29.605469 C 14.800781 30.585938 15.191406 31.527344 15.886719 32.222656 C 16.582031 32.914062 17.523438 33.304688 18.503906 33.304688 C 19.484375 33.304688 20.425781 32.914062 21.121094 32.222656 C 21.8125 31.527344 22.203125 30.585938 22.203125 29.605469 L 22.203125 28.972656 C 23.488281 28.519531 24.679688 27.828125 25.71875 26.941406 L 26.269531 27.261719 C 27.121094 27.75 28.128906 27.882812 29.078125 27.628906 C 30.027344 27.375 30.835938 26.753906 31.324219 25.902344 C 31.816406 25.050781 31.949219 24.042969 31.695312 23.09375 C 31.441406 22.144531 30.820312 21.335938 29.96875 20.847656 Z M 26.824219 16.1875 C 27.242188 17.703125 27.242188 19.300781 26.824219 20.816406 C 26.75 21.078125 26.769531 21.359375 26.871094 21.613281 C 26.976562 21.863281 27.160156 22.074219 27.398438 22.210938 L 28.734375 22.984375 C 29.019531 23.148438 29.226562 23.417969 29.308594 23.734375 C 29.394531 24.050781 29.351562 24.386719 29.1875 24.671875 C 29.023438 24.953125 28.753906 25.160156 28.4375 25.246094 C 28.121094 25.332031 27.785156 25.285156 27.5 25.121094 L 26.160156 24.347656 C 25.925781 24.210938 25.648438 24.15625 25.378906 24.191406 C 25.105469 24.230469 24.855469 24.355469 24.664062 24.550781 C 23.566406 25.671875 22.179688 26.472656 20.660156 26.863281 C 20.398438 26.933594 20.160156 27.085938 19.996094 27.304688 C 19.828125 27.519531 19.734375 27.785156 19.734375 28.058594 L 19.734375 29.605469 C 19.734375 29.933594 19.605469 30.246094 19.375 30.476562 C 19.144531 30.707031 18.828125 30.839844 18.503906 30.839844 C 18.175781 30.839844 17.859375 30.707031 17.628906 30.476562 C 17.398438 30.246094 17.269531 29.933594 17.269531 29.605469 L 17.269531 28.0625 C 17.269531 27.785156 17.175781 27.519531 17.011719 27.304688 C 16.84375 27.089844 16.605469 26.933594 16.34375 26.867188 C 14.824219 26.472656 13.441406 25.671875 12.34375 24.546875 C 12.152344 24.351562 11.898438 24.226562 11.628906 24.1875 C 11.355469 24.152344 11.082031 24.207031 10.84375 24.34375 L 9.507812 25.117188 C 9.367188 25.199219 9.210938 25.253906 9.050781 25.277344 C 8.890625 25.296875 8.726562 25.289062 8.566406 25.246094 C 8.410156 25.203125 8.261719 25.132812 8.132812 25.035156 C 8.003906 24.933594 7.894531 24.8125 7.816406 24.671875 C 7.734375 24.53125 7.679688 24.375 7.660156 24.210938 C 7.640625 24.050781 7.648438 23.886719 7.691406 23.730469 C 7.734375 23.574219 7.808594 23.425781 7.910156 23.296875 C 8.007812 23.167969 8.132812 23.0625 8.273438 22.980469 L 9.609375 22.207031 C 9.847656 22.074219 10.03125 21.859375 10.136719 21.609375 C 10.238281 21.355469 10.257812 21.074219 10.183594 20.8125 C 9.765625 19.296875 9.765625 17.699219 10.183594 16.183594 C 10.253906 15.921875 10.238281 15.644531 10.132812 15.390625 C 10.03125 15.140625 9.84375 14.929688 9.609375 14.792969 L 8.273438 14.019531 C 7.988281 13.855469 7.78125 13.585938 7.695312 13.269531 C 7.613281 12.957031 7.65625 12.617188 7.820312 12.335938 C 7.984375 12.050781 8.253906 11.84375 8.570312 11.757812 C 8.886719 11.675781 9.222656 11.71875 9.503906 11.882812 L 10.84375 12.65625 C 11.082031 12.796875 11.355469 12.851562 11.628906 12.8125 C 11.898438 12.777344 12.152344 12.652344 12.34375 12.457031 C 13.441406 11.339844 14.824219 10.539062 16.34375 10.144531 C 16.609375 10.078125 16.84375 9.921875 17.011719 9.703125 C 17.179688 9.488281 17.269531 9.21875 17.269531 8.945312 L 17.269531 7.402344 C 17.269531 7.074219 17.398438 6.761719 17.632812 6.527344 C 17.863281 6.296875 18.175781 6.167969 18.503906 6.167969 C 18.832031 6.167969 19.144531 6.296875 19.375 6.527344 C 19.605469 6.761719 19.738281 7.074219 19.738281 7.402344 L 19.738281 8.945312 C 19.738281 9.21875 19.828125 9.484375 19.996094 9.703125 C 20.164062 9.917969 20.398438 10.074219 20.664062 10.140625 C 22.183594 10.535156 23.566406 11.335938 24.664062 12.457031 C 24.855469 12.65625 25.105469 12.78125 25.378906 12.816406 C 25.648438 12.855469 25.925781 12.800781 26.164062 12.664062 L 27.5 11.890625 C 27.640625 11.808594 27.796875 11.753906 27.957031 11.730469 C 28.117188 11.707031 28.28125 11.71875 28.4375 11.761719 C 28.597656 11.800781 28.742188 11.875 28.871094 11.972656 C 29.003906 12.070312 29.109375 12.195312 29.191406 12.335938 C 29.273438 12.476562 29.324219 12.632812 29.347656 12.792969 C 29.367188 12.957031 29.355469 13.121094 29.3125 13.277344 C 29.269531 13.433594 29.199219 13.582031 29.097656 13.707031 C 29 13.835938 28.875 13.945312 28.734375 14.027344 L 27.394531 14.796875 C 27.160156 14.933594 26.976562 15.144531 26.875 15.398438 C 26.769531 15.648438 26.753906 15.929688 26.824219 16.191406 Z M 26.824219 16.1875 "/></g></g></svg>